<svg width="48" height="54" viewBox="0 0 48 54" fill="none" xmlns="http://www.w3.org/2000/svg">
<g filter="url(#filter0_d_1_334)">
<rect x="5" y="1" width="38" height="44" rx="7" stroke="url(#paint0_linear_1_334)" stroke-width="2" shape-rendering="crispEdges"/>
<path d="M29.5447 17.9132C28.5074 17.437 27.4127 17.0975 26.288 16.9031C26.2778 16.9012 26.2672 16.9025 26.2578 16.907C26.2484 16.9114 26.2406 16.9187 26.2356 16.9278C26.095 17.178 25.9392 17.5043 25.8301 17.7608C24.6003 17.5767 23.3768 17.5767 22.1722 17.7608C22.0631 17.4986 21.9017 17.178 21.7604 16.9278C21.7552 16.9189 21.7474 16.9118 21.7381 16.9073C21.7287 16.9029 21.7183 16.9014 21.7081 16.9031C20.5653 17.0999 19.4717 17.4446 18.4513 17.9132C18.4424 17.9169 18.4349 17.9234 18.4299 17.9316C16.3556 21.0305 15.7874 24.0533 16.0661 27.0385C16.0674 27.0531 16.0756 27.0671 16.0869 27.076C17.4555 28.081 18.7812 28.6911 20.0822 29.0956C20.0923 29.0986 20.1031 29.0984 20.1131 29.0952C20.1232 29.0919 20.1319 29.0856 20.1383 29.0772C20.4461 28.6569 20.7204 28.2137 20.9556 27.7477C20.9695 27.7204 20.9562 27.688 20.9279 27.6772C20.4927 27.5122 20.0784 27.3109 19.6798 27.0823C19.6482 27.0639 19.6457 27.0188 19.6747 26.9973C19.7589 26.9344 19.8415 26.8696 19.9226 26.803C19.9297 26.7971 19.9383 26.7933 19.9475 26.7921C19.9566 26.7909 19.9659 26.7922 19.9743 26.796C22.5928 27.9915 25.4277 27.9915 28.0153 26.796C28.0237 26.792 28.0331 26.7904 28.0424 26.7916C28.0516 26.7927 28.0604 26.7964 28.0676 26.8023C28.1488 26.8693 28.2317 26.9343 28.3161 26.9972C28.3451 27.0188 28.3432 27.0639 28.3117 27.0823C27.9131 27.3153 27.4988 27.5121 27.063 27.6766C27.0563 27.6791 27.0502 27.6831 27.0451 27.6882C27.0401 27.6932 27.0361 27.6993 27.0336 27.7061C27.031 27.7128 27.0299 27.7199 27.0303 27.7271C27.0307 27.7343 27.0326 27.7413 27.0359 27.7477C27.2762 28.213 27.5505 28.6562 27.8526 29.0765C27.8652 29.0943 27.8879 29.1019 27.9087 29.0955C29.2161 28.6911 30.5418 28.081 31.9103 27.0759C31.9162 27.0716 31.9211 27.0661 31.9247 27.0598C31.9283 27.0534 31.9305 27.0464 31.9311 27.0391C32.2647 23.5878 31.3723 20.5899 29.5655 17.9322C29.5611 17.9236 29.5537 17.9168 29.5447 17.9132ZM21.3467 25.2208C20.5584 25.2208 19.9088 24.497 19.9088 23.6082C19.9088 22.7193 20.5457 21.9955 21.3467 21.9955C22.1539 21.9955 22.7973 22.7257 22.7846 23.6082C22.7846 24.497 22.1476 25.2208 21.3467 25.2208ZM26.6632 25.2208C25.8749 25.2208 25.2253 24.497 25.2253 23.6082C25.2253 22.7193 25.8623 21.9955 26.6632 21.9955C27.4704 21.9955 28.1137 22.7257 28.1011 23.6082C28.1011 24.497 27.4705 25.2208 26.6632 25.2208Z" fill="url(#paint1_linear_1_334)"/>
<path d="M29.5447 17.9132C28.5074 17.437 27.4127 17.0975 26.288 16.9031C26.2778 16.9012 26.2672 16.9025 26.2578 16.907C26.2484 16.9114 26.2406 16.9187 26.2356 16.9278C26.095 17.178 25.9392 17.5043 25.8301 17.7608C24.6003 17.5767 23.3768 17.5767 22.1722 17.7608C22.0631 17.4986 21.9017 17.178 21.7604 16.9278C21.7552 16.9189 21.7474 16.9118 21.7381 16.9073C21.7287 16.9029 21.7183 16.9014 21.7081 16.9031C20.5653 17.0999 19.4717 17.4446 18.4513 17.9132C18.4424 17.9169 18.4349 17.9234 18.4299 17.9316C16.3556 21.0305 15.7874 24.0533 16.0661 27.0385C16.0674 27.0531 16.0756 27.0671 16.0869 27.076C17.4555 28.081 18.7812 28.6911 20.0822 29.0956C20.0923 29.0986 20.1031 29.0984 20.1131 29.0952C20.1232 29.0919 20.1319 29.0856 20.1383 29.0772C20.4461 28.6569 20.7204 28.2137 20.9556 27.7477C20.9695 27.7204 20.9562 27.688 20.9279 27.6772C20.4927 27.5122 20.0784 27.3109 19.6798 27.0823C19.6482 27.0639 19.6457 27.0188 19.6747 26.9973C19.7589 26.9344 19.8415 26.8696 19.9226 26.803C19.9297 26.7971 19.9383 26.7933 19.9475 26.7921C19.9566 26.7909 19.9659 26.7922 19.9743 26.796C22.5928 27.9915 25.4277 27.9915 28.0153 26.796C28.0237 26.792 28.0331 26.7904 28.0424 26.7916C28.0516 26.7927 28.0604 26.7964 28.0676 26.8023C28.1488 26.8693 28.2317 26.9343 28.3161 26.9972C28.3451 27.0188 28.3432 27.0639 28.3117 27.0823C27.9131 27.3153 27.4988 27.5121 27.063 27.6766C27.0563 27.6791 27.0502 27.6831 27.0451 27.6882C27.0401 27.6932 27.0361 27.6993 27.0336 27.7061C27.031 27.7128 27.0299 27.7199 27.0303 27.7271C27.0307 27.7343 27.0326 27.7413 27.0359 27.7477C27.2762 28.213 27.5505 28.6562 27.8526 29.0765C27.8652 29.0943 27.8879 29.1019 27.9087 29.0955C29.2161 28.6911 30.5418 28.081 31.9103 27.0759C31.9162 27.0716 31.9211 27.0661 31.9247 27.0598C31.9283 27.0534 31.9305 27.0464 31.9311 27.0391C32.2647 23.5878 31.3723 20.5899 29.5655 17.9322C29.5611 17.9236 29.5537 17.9168 29.5447 17.9132ZM21.3467 25.2208C20.5584 25.2208 19.9088 24.497 19.9088 23.6082C19.9088 22.7193 20.5457 21.9955 21.3467 21.9955C22.1539 21.9955 22.7973 22.7257 22.7846 23.6082C22.7846 24.497 22.1476 25.2208 21.3467 25.2208ZM26.6632 25.2208C25.8749 25.2208 25.2253 24.497 25.2253 23.6082C25.2253 22.7193 25.8623 21.9955 26.6632 21.9955C27.4704 21.9955 28.1137 22.7257 28.1011 23.6082C28.1011 24.497 27.4705 25.2208 26.6632 25.2208Z" fill="url(#paint2_linear_1_334)"/>
</g>
<defs>
<filter id="filter0_d_1_334" x="0" y="0" width="48" height="54" filterUnits="userSpaceOnUse" color-interpolation-filters="sRGB">
<feFlood flood-opacity="0" result="BackgroundImageFix"/>
<feColorMatrix in="SourceAlpha" type="matrix" values="0 0 0 0 0 0 0 0 0 0 0 0 0 0 0 0 0 0 127 0" result="hardAlpha"/>
<feOffset dy="4"/>
<feGaussianBlur stdDeviation="2"/>
<feComposite in2="hardAlpha" operator="out"/>
<feColorMatrix type="matrix" values="0 0 0 0 0 0 0 0 0 0 0 0 0 0 0 0 0 0 0.7 0"/>
<feBlend mode="normal" in2="BackgroundImageFix" result="effect1_dropShadow_1_334"/>
<feBlend mode="normal" in="SourceGraphic" in2="effect1_dropShadow_1_334" result="shape"/>
</filter>
<linearGradient id="paint0_linear_1_334" x1="12.3534" y1="-8.25641" x2="52.8005" y2="15.6284" gradientUnits="userSpaceOnUse">
<stop stop-color="#B69853"/>
<stop offset="0.505208" stop-color="#BE9F57"/>
<stop offset="1" stop-color="#C1A258"/>
</linearGradient>
<linearGradient id="paint1_linear_1_334" x1="24" y1="16.9022" x2="24" y2="29.0978" gradientUnits="userSpaceOnUse">
<stop stop-color="#C4A459"/>
<stop offset="1" stop-color="#B59753"/>
</linearGradient>
<linearGradient id="paint2_linear_1_334" x1="16.5915" y1="19.4938" x2="30.3903" y2="15.9696" gradientUnits="userSpaceOnUse">
<stop stop-color="#F4CE6F"/>
<stop offset="0.463542" stop-color="#B29551"/>
<stop offset="1" stop-color="#F6CF6F"/>
</linearGradient>
</defs>
</svg>
