<svg width="21" height="20" viewBox="0 0 21 20" fill="none" xmlns="http://www.w3.org/2000/svg">
<g clip-path="url(#clip0_2_79)">
<path d="M10.2837 20C15.8065 20 20.2837 15.5228 20.2837 10C20.2837 4.47715 15.8065 0 10.2837 0C4.76084 0 0.283691 4.47715 0.283691 10C0.283691 15.5228 4.76084 20 10.2837 20Z" fill="#F8BF52"/>
<path d="M10.2837 17.7103C14.542 17.7103 17.994 14.2583 17.994 10C17.994 5.74179 14.542 2.28979 10.2837 2.28979C6.02549 2.28979 2.57349 5.74179 2.57349 10C2.57349 14.2583 6.02549 17.7103 10.2837 17.7103Z" fill="#F6B336"/>
<path d="M6.54327 10.198C7.1157 10.5193 8.90733 11.5254 9.61194 11.9209C9.74129 11.9934 9.90074 11.8998 9.90074 11.7516V5.05312C9.90074 4.85744 9.64392 4.78454 9.54138 4.95152C8.56349 6.54324 6.93038 9.19893 6.47365 9.92612C6.41533 10.0197 6.44684 10.1434 6.54327 10.198Z" fill="white"/>
<path d="M14.0973 9.92609L11.0254 4.91151C10.9228 4.74453 10.666 4.81697 10.666 5.01264V11.7638C10.666 11.9125 10.8264 12.0061 10.9558 11.9327L14.0277 10.1961C14.1232 10.1425 14.1547 10.0197 14.0973 9.92609Z" fill="white"/>
<path d="M10.666 13.0019V15.175C10.666 15.3627 10.9054 15.4407 11.0164 15.2897L13.6844 11.6557C13.8071 11.4882 13.6166 11.2709 13.4346 11.3707L10.7667 12.8316C10.7051 12.8659 10.666 12.9309 10.666 13.0019Z" fill="white"/>
<path d="M6.93503 11.6824C7.62694 12.6062 8.78969 14.1989 9.55027 15.2431C9.66081 15.395 9.90117 15.3165 9.90117 15.1288V12.9891C9.90117 12.9181 9.86213 12.8527 9.80004 12.8188L7.18339 11.3955C6.99994 11.2958 6.80991 11.5154 6.93503 11.6824Z" fill="white"/>
<path d="M3.3129 10.9925C3.3129 6.73429 6.76493 3.28227 11.0232 3.28227C13.3341 3.28227 15.4074 4.2992 16.8204 5.91021C15.4573 3.7357 13.0396 2.28979 10.2837 2.28979C6.02551 2.28979 2.57349 5.74182 2.57349 10C2.57349 11.9474 3.2955 13.7254 4.486 15.0824C3.74282 13.897 3.3129 12.4949 3.3129 10.9925Z" fill="#D59B2D"/>
<path d="M4.79441 2.94361C4.72715 2.86224 4.6279 2.81567 4.52207 2.81567C4.4407 2.81567 4.36073 2.84437 4.2977 2.89658C4.29723 2.89658 4.29723 2.89705 4.29723 2.89705C4.14766 3.02122 4.12696 3.24371 4.25067 3.39328C4.31793 3.47466 4.41718 3.52122 4.52254 3.52122C4.60438 3.52122 4.68435 3.49253 4.74738 3.44032C4.81981 3.38011 4.86497 3.29545 4.8739 3.20137C4.88237 3.10777 4.85415 3.01605 4.79441 2.94361Z" fill="white"/>
<path d="M3.67218 3.96903C3.60868 3.91588 3.52824 3.88672 3.44593 3.88672C3.34104 3.88672 3.24226 3.93281 3.175 4.01325C2.83822 4.41635 2.53624 4.85332 2.2766 5.31287C2.27613 5.31381 2.27519 5.31475 2.27472 5.31569C1.48873 6.70892 1.09033 8.28512 1.09033 10.0001C1.09033 10.1948 1.24838 10.3529 1.44311 10.3529C1.63784 10.3529 1.79588 10.1948 1.79588 10.0001C1.79588 8.40789 2.16371 6.94834 2.88949 5.66235C2.88949 5.66235 2.88949 5.66188 2.88996 5.66188C3.1289 5.23855 3.40689 4.83639 3.71639 4.46574C3.77707 4.39377 3.80576 4.30205 3.79729 4.20845C3.78883 4.11438 3.74461 4.02924 3.67218 3.96903Z" fill="white"/>
</g>
<defs>
<clipPath id="clip0_2_79">
<rect width="20" height="20" fill="white" transform="translate(0.283691)"/>
</clipPath>
</defs>
</svg>
