<svg width="49" height="50" viewBox="0 0 49 50" fill="none" xmlns="http://www.w3.org/2000/svg">
<path d="M24.6572 49.2593C38.0625 49.2593 48.9297 38.3921 48.9297 24.9868C48.9297 11.5815 38.0625 0.714355 24.6572 0.714355C11.2519 0.714355 0.384766 11.5815 0.384766 24.9868C0.384766 38.3921 11.2519 49.2593 24.6572 49.2593Z" fill="#F8BF52"/>
<path d="M24.6571 43.7016C34.9929 43.7016 43.3717 35.3227 43.3717 24.9869C43.3717 14.6511 34.9929 6.27222 24.6571 6.27222C14.3212 6.27222 5.94238 14.6511 5.94238 24.9869C5.94238 35.3227 14.3212 43.7016 24.6571 43.7016Z" fill="#F6B336"/>
<path d="M15.579 25.4676C16.9684 26.2474 21.3172 28.6895 23.0274 29.6496C23.3414 29.8255 23.7284 29.5983 23.7284 29.2386V12.9797C23.7284 12.5048 23.1051 12.3278 22.8562 12.7331C20.4826 16.5966 16.5186 23.0426 15.41 24.8077C15.2685 25.0349 15.3449 25.3352 15.579 25.4676Z" fill="white"/>
<path d="M33.9146 24.8077L26.4582 12.6361C26.2093 12.2308 25.5859 12.4066 25.5859 12.8815V29.2683C25.5859 29.6291 25.9753 29.8563 26.2892 29.6782L33.7456 25.463C33.9774 25.3329 34.0539 25.0349 33.9146 24.8077Z" fill="white"/>
<path d="M25.5859 32.2731V37.5477C25.5859 38.0033 26.1671 38.1928 26.4365 37.8263L32.9122 29.0056C33.2102 28.5991 32.7478 28.0717 32.306 28.3137L25.8303 31.8598C25.6807 31.9432 25.5859 32.1007 25.5859 32.2731Z" fill="white"/>
<path d="M16.5303 29.0708C18.2098 31.3131 21.032 35.1789 22.8782 37.7135C23.1465 38.0823 23.7299 37.8916 23.7299 37.4361V32.2425C23.7299 32.0701 23.6351 31.9114 23.4844 31.8292L17.1331 28.3744C16.6879 28.1324 16.2266 28.6655 16.5303 29.0708Z" fill="white"/>
<path d="M7.73713 27.3959C7.73713 17.0601 16.116 8.6812 26.4518 8.6812C32.061 8.6812 37.0936 11.1495 40.5232 15.0599C37.2146 9.78179 31.3463 6.27222 24.6571 6.27222C14.3213 6.27222 5.94238 14.6511 5.94238 24.9869C5.94238 29.7135 7.69489 34.0291 10.5845 37.3229C8.78064 34.4459 7.73713 31.0425 7.73713 27.3959Z" fill="#D59B2D"/>
<path d="M11.3337 7.85913C11.1704 7.66161 10.9295 7.54858 10.6726 7.54858C10.4751 7.54858 10.281 7.61823 10.128 7.74496C10.1269 7.74496 10.1269 7.7461 10.1269 7.7461C9.76383 8.04751 9.7136 8.58753 10.0139 8.95059C10.1771 9.1481 10.418 9.26113 10.6738 9.26113C10.8724 9.26113 11.0665 9.19148 11.2195 9.06476C11.3953 8.91862 11.5049 8.71311 11.5266 8.48477C11.5472 8.25758 11.4787 8.03495 11.3337 7.85913Z" fill="white"/>
<path d="M8.60954 10.3481C8.45541 10.2191 8.26019 10.1483 8.06039 10.1483C7.80579 10.1483 7.56603 10.2602 7.40277 10.4554C6.58532 11.4339 5.85235 12.4945 5.22213 13.6099C5.22099 13.6122 5.21871 13.6145 5.21756 13.6168C3.30979 16.9985 2.34277 20.8243 2.34277 24.9869C2.34277 25.4596 2.72638 25.8432 3.19905 25.8432C3.67171 25.8432 4.05532 25.4596 4.05532 24.9869C4.05532 21.1223 4.94812 17.5796 6.70976 14.4582C6.70976 14.4582 6.70976 14.4571 6.7109 14.4571C7.29089 13.4296 7.96563 12.4534 8.71686 11.5537C8.86414 11.3791 8.93379 11.1564 8.91323 10.9292C8.89268 10.7009 8.78537 10.4942 8.60954 10.3481Z" fill="white"/>
</svg>
