<svg width="119" height="63" viewBox="0 0 119 63" fill="none" xmlns="http://www.w3.org/2000/svg">
<g filter="url(#filter0_d_1_237)">
<mask id="path-1-outside-1_1_237" maskUnits="userSpaceOnUse" x="0.5" y="10" width="118" height="48" fill="black">
<rect fill="white" x="0.5" y="10" width="118" height="48"/>
<path d="M13.4 47H4V13.5H33.95V21.95H13.4V26.95H33.2V35.35H13.4V47ZM44.9719 47H34.4219L48.8719 13.5H62.3219L76.8219 47H66.0219L63.4719 40.8H47.5719L44.9719 47ZM53.0719 27.65L51.1219 32.35H60.0219L58.0719 27.65L55.8719 22H55.2219L53.0719 27.65ZM111.428 54.05H99.0781L93.6281 47.4C83.3281 46.6 77.3281 40 77.3281 30.25C77.3281 19.8 84.2281 13 95.8781 13C107.828 13 114.628 19.8 114.628 30.25C114.628 38 110.928 43.7 104.128 46.15L111.428 54.05ZM95.8781 38.5C102.678 38.5 104.628 36.9 104.628 30.25C104.628 23.6 102.678 22 95.8781 22C89.0781 22 87.3281 23.6 87.3281 30.25C87.3281 36.9 89.0781 38.5 95.8781 38.5Z"/>
</mask>
<path d="M13.4 47V50H16.4V47H13.4ZM4 47H1V50H4V47ZM4 13.5V10.5H1V13.5H4ZM33.95 13.5H36.95V10.5H33.95V13.5ZM33.95 21.95V24.95H36.95V21.95H33.95ZM13.4 21.95V18.95H10.4V21.95H13.4ZM13.4 26.95H10.4V29.95H13.4V26.95ZM33.2 26.95H36.2V23.95H33.2V26.95ZM33.2 35.35V38.35H36.2V35.35H33.2ZM13.4 35.35V32.35H10.4V35.35H13.4ZM13.4 44H4V50H13.4V44ZM7 47V13.5H1V47H7ZM4 16.5H33.95V10.5H4V16.5ZM30.95 13.5V21.95H36.95V13.5H30.95ZM33.95 18.95H13.4V24.95H33.95V18.95ZM10.4 21.95V26.95H16.4V21.95H10.4ZM13.4 29.95H33.2V23.95H13.4V29.95ZM30.2 26.95V35.35H36.2V26.95H30.2ZM33.2 32.35H13.4V38.35H33.2V32.35ZM10.4 35.35V47H16.4V35.35H10.4ZM44.9719 47V50H46.9669L47.7385 48.1602L44.9719 47ZM34.4219 47L31.6672 45.8118L29.8607 50H34.4219V47ZM48.8719 13.5V10.5H46.8987L46.1172 12.3118L48.8719 13.5ZM62.3219 13.5L65.075 12.3083L64.2923 10.5H62.3219V13.5ZM76.8219 47V50H81.3893L79.575 45.8083L76.8219 47ZM66.0219 47L63.2474 48.1411L64.0119 50H66.0219V47ZM63.4719 40.8L66.2464 39.6589L65.4818 37.8H63.4719V40.8ZM47.5719 40.8V37.8H45.5768L44.8053 39.6398L47.5719 40.8ZM53.0719 27.65L55.8428 28.7997L55.8599 28.7585L55.8757 28.717L53.0719 27.65ZM51.1219 32.35L48.3509 31.2003L46.6292 35.35H51.1219V32.35ZM60.0219 32.35V35.35H64.5145L62.7928 31.2003L60.0219 32.35ZM58.0719 27.65L55.2763 28.7385L55.2883 28.7692L55.3009 28.7997L58.0719 27.65ZM55.8719 22L58.6674 20.9115L57.9231 19H55.8719V22ZM55.2219 22V19H53.1536L52.418 20.933L55.2219 22ZM44.9719 44H34.4219V50H44.9719V44ZM37.1765 48.1882L51.6265 14.6882L46.1172 12.3118L31.6672 45.8118L37.1765 48.1882ZM48.8719 16.5H62.3219V10.5H48.8719V16.5ZM59.5687 14.6917L74.0687 48.1917L79.575 45.8083L65.075 12.3083L59.5687 14.6917ZM76.8219 44H66.0219V50H76.8219V44ZM68.7964 45.8589L66.2464 39.6589L60.6974 41.9411L63.2474 48.1411L68.7964 45.8589ZM63.4719 37.8H47.5719V43.8H63.4719V37.8ZM44.8053 39.6398L42.2053 45.8398L47.7385 48.1602L50.3385 41.9602L44.8053 39.6398ZM50.3009 26.5003L48.3509 31.2003L53.8928 33.4997L55.8428 28.7997L50.3009 26.5003ZM51.1219 35.35H60.0219V29.35H51.1219V35.35ZM62.7928 31.2003L60.8428 26.5003L55.3009 28.7997L57.2509 33.4997L62.7928 31.2003ZM60.8674 26.5615L58.6674 20.9115L53.0763 23.0885L55.2763 28.7385L60.8674 26.5615ZM55.8719 19H55.2219V25H55.8719V19ZM52.418 20.933L50.268 26.583L55.8757 28.717L58.0257 23.067L52.418 20.933ZM111.428 54.05V57.05H118.285L113.631 52.014L111.428 54.05ZM99.0781 54.05L96.7578 55.9516L97.658 57.05H99.0781V54.05ZM93.6281 47.4L95.9484 45.4984L95.1369 44.5082L93.8604 44.409L93.6281 47.4ZM104.128 46.15L103.111 43.3276L98.8531 44.8618L101.925 48.186L104.128 46.15ZM111.428 51.05H99.0781V57.05H111.428V51.05ZM101.398 52.1484L95.9484 45.4984L91.3078 49.3016L96.7578 55.9516L101.398 52.1484ZM93.8604 44.409C89.3081 44.0554 85.9849 42.4519 83.8027 40.1277C81.6231 37.8065 80.3281 34.4972 80.3281 30.25H74.3281C74.3281 35.7528 76.0331 40.6185 79.4286 44.2348C82.8213 47.8481 87.6482 49.9446 93.3958 50.391L93.8604 44.409ZM80.3281 30.25C80.3281 25.7054 81.8109 22.234 84.2949 19.8867C86.7961 17.523 90.6315 16 95.8781 16V10C89.4748 10 84.0351 11.877 80.1739 15.5258C76.2953 19.191 74.3281 24.3446 74.3281 30.25H80.3281ZM95.8781 16C101.293 16 105.174 17.5333 107.678 19.8907C110.163 22.2299 111.628 25.6938 111.628 30.25H117.628C117.628 24.3562 115.693 19.1951 111.791 15.5218C107.908 11.8667 102.413 10 95.8781 10V16ZM111.628 30.25C111.628 33.6466 110.82 36.4115 109.421 38.5395C108.032 40.6523 105.953 42.3037 103.111 43.3276L105.145 48.9724C109.103 47.5463 112.274 45.1227 114.435 41.8355C116.586 38.5635 117.628 34.6034 117.628 30.25H111.628ZM101.925 48.186L109.225 56.086L113.631 52.014L106.331 44.114L101.925 48.186ZM95.8781 41.5C99.2497 41.5 102.557 41.1726 104.835 39.0759C107.194 36.9045 107.628 33.6315 107.628 30.25H101.628C101.628 33.5185 101.087 34.3705 100.771 34.6616C100.374 35.0274 99.3066 35.5 95.8781 35.5V41.5ZM107.628 30.25C107.628 26.8685 107.194 23.5955 104.835 21.4241C102.557 19.3274 99.2497 19 95.8781 19V25C99.3066 25 100.374 25.4726 100.771 25.8384C101.087 26.1295 101.628 26.9815 101.628 30.25H107.628ZM95.8781 19C92.5215 19 89.2201 19.3206 86.9797 21.4631C84.694 23.6489 84.3281 26.9276 84.3281 30.25H90.3281C90.3281 26.9224 90.8373 26.0761 91.1266 25.7994C91.4612 25.4794 92.4347 25 95.8781 25V19ZM84.3281 30.25C84.3281 33.5724 84.694 36.8511 86.9797 39.0369C89.2201 41.1794 92.5215 41.5 95.8781 41.5V35.5C92.4347 35.5 91.4612 35.0206 91.1266 34.7006C90.8373 34.4239 90.3281 33.5776 90.3281 30.25H84.3281Z" fill="#FAC764" mask="url(#path-1-outside-1_1_237)"/>
</g>
<defs>
<filter id="filter0_d_1_237" x="-1.5" y="0" width="122" height="70" filterUnits="userSpaceOnUse" color-interpolation-filters="sRGB">
<feFlood flood-opacity="0" result="BackgroundImageFix"/>
<feColorMatrix in="SourceAlpha" type="matrix" values="0 0 0 0 0 0 0 0 0 0 0 0 0 0 0 0 0 0 127 0" result="hardAlpha"/>
<feOffset dy="4"/>
<feGaussianBlur stdDeviation="2"/>
<feComposite in2="hardAlpha" operator="out"/>
<feColorMatrix type="matrix" values="0 0 0 0 0 0 0 0 0 0 0 0 0 0 0 0 0 0 0.25 0"/>
<feBlend mode="normal" in2="BackgroundImageFix" result="effect1_dropShadow_1_237"/>
<feBlend mode="normal" in="SourceGraphic" in2="effect1_dropShadow_1_237" result="shape"/>
</filter>
</defs>
</svg>
