<svg width="169" height="47" viewBox="0 0 169 47" fill="none" xmlns="http://www.w3.org/2000/svg">
<path d="M43.7312 23.3935C43.7312 35.212 34.3774 44.7928 22.8388 44.7928C11.3002 44.7928 1.94629 35.212 1.94629 23.3935C1.94629 11.575 11.3002 1.99414 22.8388 1.99414C34.3774 1.99414 43.7312 11.575 43.7312 23.3935Z" fill="url(#paint0_linear_1_275)"/>
<path fill-rule="evenodd" clip-rule="evenodd" d="M45.6779 23.3931C45.6779 36.3127 35.4526 46.7861 22.839 46.7861C10.2253 46.7861 0 36.3127 0 23.3931C0 10.4734 10.2253 0 22.839 0C35.4526 0 45.6779 10.4734 45.6779 23.3931ZM22.839 44.7924C34.3775 44.7924 43.7314 35.2116 43.7314 23.3931C43.7314 11.5746 34.3775 1.99373 22.839 1.99373C11.3004 1.99373 1.9465 11.5746 1.9465 23.3931C1.9465 35.2116 11.3004 44.7924 22.839 44.7924Z" fill="white"/>
<g filter="url(#filter0_d_1_275)">
<path d="M23.537 8.65953C23.2627 7.98524 22.3707 7.98524 22.0964 8.65953C18.7542 16.8784 12.5358 21.8882 11.4983 22.6827C11.0575 23.0201 11.0575 23.7211 11.4983 24.0586C12.5358 24.8531 18.7542 29.8629 22.0964 38.0817C22.3707 38.756 23.2627 38.756 23.537 38.0817C26.8793 29.8629 33.0976 24.8531 34.1351 24.0586C34.5759 23.7211 34.5759 23.0201 34.1351 22.6827C33.0976 21.8882 26.8793 16.8784 23.537 8.65953Z" fill="url(#paint1_linear_1_275)"/>
</g>
<path fill-rule="evenodd" clip-rule="evenodd" d="M22.8167 10.2844C19.6274 17.3525 14.5305 21.9198 12.7506 23.3706C14.5305 24.8214 19.6274 29.3887 22.8167 36.4568C26.0061 29.3887 31.103 24.8214 32.8828 23.3706C31.103 21.9198 26.0061 17.3525 22.8167 10.2844ZM22.0964 8.65953C22.3707 7.98524 23.2627 7.98524 23.537 8.65953C26.8793 16.8784 33.0976 21.8882 34.1351 22.6827C34.5759 23.0201 34.5759 23.7211 34.1351 24.0586C33.0976 24.8531 26.8793 29.8629 23.537 38.0817C23.2627 38.756 22.3707 38.756 22.0964 38.0817C18.7542 29.8629 12.5358 24.8531 11.4983 24.0586C11.0575 23.7211 11.0575 23.0201 11.4983 22.6827C12.5358 21.8882 18.7542 16.8784 22.0964 8.65953Z" fill="url(#paint2_linear_1_275)"/>
<path d="M160.41 36.3931C159.072 36.3931 157.858 36.1699 156.769 35.7237C155.681 35.254 154.739 34.5963 153.945 33.7508C153.151 32.8818 152.55 31.8601 152.142 30.6857C151.734 29.4879 151.529 28.1609 151.529 26.7047C151.529 24.7318 151.893 23.029 152.619 21.5963C153.367 20.1401 154.41 19.0127 155.749 18.2141C157.11 17.3921 158.709 16.981 160.546 16.981C162.066 16.981 163.415 17.2746 164.595 17.8618C165.775 18.449 166.716 19.271 167.419 20.328C168.145 21.3614 168.542 22.571 168.61 23.9567H164.459C164.345 23.2286 164.096 22.6179 163.71 22.1247C163.347 21.6315 162.882 21.2557 162.315 20.9974C161.748 20.739 161.125 20.6098 160.444 20.6098C159.468 20.6098 158.629 20.8682 157.926 21.3848C157.223 21.8781 156.69 22.5827 156.327 23.4987C155.987 24.4147 155.817 25.4833 155.817 26.7047C155.817 28.0434 156.009 29.1591 156.395 30.0516C156.781 30.9441 157.314 31.6252 157.994 32.0949C158.697 32.5412 159.503 32.7643 160.41 32.7643C161.204 32.7643 161.896 32.6234 162.485 32.3416C163.075 32.0362 163.54 31.6252 163.881 31.1085C164.243 30.5683 164.459 29.9576 164.527 29.2765H168.678C168.587 30.7092 168.179 31.9658 167.453 33.0461C166.727 34.1031 165.763 34.9251 164.561 35.5123C163.359 36.0995 161.975 36.3931 160.41 36.3931Z" fill="white"/>
<path d="M145.175 36.0761V17.3335H149.428V36.0761H145.175ZM145.175 14.6912V10.3931H149.428V14.6912H145.175Z" fill="white"/>
<path d="M139.491 36.0759C138.379 36.0759 137.506 35.9115 136.871 35.5827C136.258 35.2304 135.827 34.7372 135.578 34.103C135.329 33.4689 135.204 32.7056 135.204 31.813V20.8916H131.87V17.3333H135.204V12.0487L139.423 11.5907V17.3333H143.268V20.8916H139.423V31.0027C139.423 31.5899 139.548 31.9892 139.797 32.2006C140.046 32.3885 140.432 32.4824 140.954 32.4824H143.268V36.0759H139.491Z" fill="white"/>
<path d="M114.471 36.076V17.3333H118.554L118.724 20.8916H118.929C119.45 19.5763 120.244 18.6016 121.31 17.9675C122.376 17.3099 123.567 16.981 124.883 16.981C125.79 16.981 126.629 17.1337 127.4 17.4391C128.194 17.7209 128.875 18.1789 129.442 18.8131C130.032 19.4237 130.485 20.234 130.803 21.244C131.143 22.2304 131.313 23.4282 131.313 24.8374V36.076H127.06V25.7887C127.06 24.6143 126.924 23.6514 126.652 22.8998C126.38 22.1247 125.96 21.5493 125.393 21.1735C124.849 20.7977 124.134 20.6098 123.25 20.6098C122.297 20.6098 121.48 20.8446 120.8 21.3144C120.142 21.7842 119.632 22.4065 119.268 23.1816C118.906 23.9567 118.724 24.814 118.724 25.7535V36.076H114.471Z" fill="white"/>
<path d="M100.791 36.3931C99.7027 36.3931 98.7047 36.1934 97.7974 35.7942C96.913 35.3714 96.1417 34.749 95.4835 33.9269C94.8488 33.1049 94.3608 32.0949 94.021 30.8971C93.6807 29.6758 93.5105 28.2783 93.5105 26.7047C93.5105 24.5674 93.8055 22.7823 94.3949 21.3496C95.0072 19.8934 95.858 18.8013 96.9466 18.0732C98.0582 17.3451 99.3399 16.981 100.791 16.981C101.79 16.981 102.674 17.1455 103.445 17.4743C104.239 17.7796 104.92 18.2141 105.487 18.7778C106.054 19.3415 106.485 20.0109 106.78 20.7859H107.018L107.188 17.3333H111.271V36.076H107.018V32.5882H106.78C106.349 33.739 105.612 34.6667 104.568 35.3714C103.525 36.0525 102.266 36.3931 100.791 36.3931ZM102.391 32.7995C103.411 32.7995 104.251 32.5529 104.909 32.0597C105.589 31.5665 106.1 30.9323 106.439 30.1573C106.78 29.3587 106.95 28.5249 106.95 27.6559V25.7182C106.95 24.8257 106.78 23.9919 106.439 23.2169C106.1 22.4183 105.589 21.7842 104.909 21.3144C104.251 20.8212 103.411 20.5746 102.391 20.5746C101.484 20.5746 100.689 20.7977 100.009 21.244C99.3287 21.6902 98.7954 22.3713 98.4097 23.2873C98.0241 24.1798 97.8315 25.3189 97.8315 26.7047C97.8315 28.0434 98.0241 29.1708 98.4097 30.0868C98.7954 31.0028 99.3287 31.6839 100.009 32.1302C100.689 32.5764 101.484 32.7995 102.391 32.7995Z" fill="white"/>
<path d="M87.1558 36.0761V10.3931H91.4091V36.0761H87.1558Z" fill="white"/>
<path d="M81.4715 36.0759C80.3599 36.0759 79.4868 35.9115 78.8515 35.5827C78.2392 35.2304 77.8082 34.7372 77.5586 34.103C77.3089 33.4689 77.1841 32.7056 77.1841 31.813V20.8916H73.8499V17.3333H77.1841V12.0487L81.4032 11.5907V17.3333H85.2479V20.8916H81.4032V31.0027C81.4032 31.5899 81.5281 31.9892 81.7777 32.2006C82.0268 32.3885 82.4124 32.4824 82.9346 32.4824H85.2479V36.0759H81.4715Z" fill="white"/>
<path d="M52.6779 36.0761L61.218 10.3931H67.5467L76.0868 36.0761H71.4255L69.5544 30.4392H59.2109L57.3733 36.0761H52.6779ZM60.2995 26.8457H68.4993L66.0495 19.6235L64.4845 14.6559H64.3143L62.7152 19.6235L60.2995 26.8457Z" fill="white"/>
<defs>
<filter id="filter0_d_1_275" x="6.58514" y="4.57367" width="32.4631" height="39.5988" filterUnits="userSpaceOnUse" color-interpolation-filters="sRGB">
<feFlood flood-opacity="0" result="BackgroundImageFix"/>
<feColorMatrix in="SourceAlpha" type="matrix" values="0 0 0 0 0 0 0 0 0 0 0 0 0 0 0 0 0 0 127 0" result="hardAlpha"/>
<feOffset dy="1.00244"/>
<feGaussianBlur stdDeviation="2.29129"/>
<feComposite in2="hardAlpha" operator="out"/>
<feColorMatrix type="matrix" values="0 0 0 0 0 0 0 0 0 0 0 0 0 0 0 0 0 0 0.21 0"/>
<feBlend mode="normal" in2="BackgroundImageFix" result="effect1_dropShadow_1_275"/>
<feBlend mode="normal" in="SourceGraphic" in2="effect1_dropShadow_1_275" result="shape"/>
</filter>
<linearGradient id="paint0_linear_1_275" x1="37.5615" y1="46.7548" x2="13.0697" y2="0.557173" gradientUnits="userSpaceOnUse">
<stop offset="0.0700125" stop-color="white"/>
<stop offset="0.175313" stop-color="#EFC062"/>
<stop offset="0.354324" stop-color="#FEDE7A"/>
<stop offset="0.663206" stop-color="#BC9D55"/>
<stop offset="0.933478" stop-color="#0C0C0C"/>
</linearGradient>
<linearGradient id="paint1_linear_1_275" x1="22.8167" y1="8.15382" x2="39.9422" y2="39.134" gradientUnits="userSpaceOnUse">
<stop offset="0.109375" stop-color="white"/>
<stop offset="1" stop-color="white" stop-opacity="0"/>
</linearGradient>
<linearGradient id="paint2_linear_1_275" x1="39.9895" y1="46.3441" x2="13.8225" y2="9.99884" gradientUnits="userSpaceOnUse">
<stop stop-color="white"/>
<stop offset="1" stop-color="white" stop-opacity="0"/>
</linearGradient>
</defs>
</svg>
