<svg width="801" height="201" viewBox="0 0 801 201" fill="none" xmlns="http://www.w3.org/2000/svg">
<path d="M46.9 77H2V10H44.6C59.1 10 66.3 15.7 66.3 26.2C66.3 34.8 61.8 40.9 49.6 41.4V42.4C63 42.9 69.4 49.1 69.4 58.4C69.4 69.7 62.9 77 46.9 77ZM20.7 26.9V35.4H42.6C46.4 35.4 47.5 34.3 47.5 31.2C47.5 28.1 46 26.9 42.1 26.9H20.7ZM20.7 50.8V60.1H44.5C49 60.1 50.4 59.2 50.4 55.4C50.4 51.7 49.1 50.8 44.5 50.8H20.7ZM107.187 78C83.7867 78 72.9867 66.7 72.9867 48.9V10H91.7867V47.4C91.7867 56.9 94.4867 59.8 107.187 59.8C119.887 59.8 122.587 56.9 122.587 47.4V10H141.387V48.9C141.387 66.7 130.587 78 107.187 78ZM191.42 77H172.62V55.7L142.52 10H165.82L175.92 25.9L181.62 35.3H182.92L188.62 25.9L198.72 10H222.12L191.42 55.8V77ZM467.902 77H449.102V26.9H425.402V10H491.502V26.9H467.902V77ZM514.843 77H496.043V10H514.843V77ZM556.848 78C533.548 78 519.848 64.4 519.848 43.5C519.848 22.6 533.548 9 556.848 9C579.348 9 592.848 19.7 592.848 37.6V39.3H571.848V37.6C571.848 30 568.248 27 557.148 27C543.548 27 539.848 30.2 539.848 43.5C539.848 56.8 543.548 60 557.148 60C568.248 60 571.848 57 571.848 49.4V47.7H592.848V49.4C592.848 67.3 579.348 78 556.848 78ZM616.601 77H597.801V10H616.601V34.9H630.101L646.401 10H668.901L645.701 42.9L668.401 77H645.901L630.301 53.2H616.601V77ZM730.445 77H670.945V10H730.445V26.9H689.745V34.9H728.945V51.7H689.745V60.1H730.445V77ZM776.789 77H757.989V26.9H734.289V10H800.389V26.9H776.789V77ZM43 200H24.2V149.9H0.5V133H66.6V149.9H43V200ZM107.241 201C83.9406 201 70.1406 187.4 70.1406 166.5C70.1406 145.6 83.9406 132 107.241 132C131.141 132 144.741 145.6 144.741 166.5C144.741 187.4 131.141 201 107.241 201ZM107.241 183C120.841 183 124.741 179.8 124.741 166.5C124.741 153.2 120.841 150 107.241 150C93.6406 150 90.1406 153.2 90.1406 166.5C90.1406 179.8 93.6406 183 107.241 183Z" fill="url(#paint0_linear_1_64)"/>
<path d="M275.947 87H261.947V77.6C246.047 75.9 237.247 68.1 237.247 54.4V53.8H252.247V55.6C252.247 61.8 255.347 64.3 268.947 64.3C280.947 64.3 283.747 62.5 283.747 58C283.747 53.9 281.447 52.4 274.547 51.2L255.747 48.5C243.747 46.6 236.647 40.6 236.647 29.7C236.647 20.5 243.547 10.8 261.947 9.2V-4.05312e-06H275.947V9.6C290.647 12 297.547 20.6 297.547 32.6V33.2H282.447V31.8C282.447 25.4 279.147 22.7 265.847 22.7C255.047 22.7 251.747 24.8 251.747 29.1C251.747 33 253.947 34.4 259.547 35.4L278.347 38.4C293.347 40.8 298.747 48.1 298.747 57.3C298.747 66.9 292.147 75.7 275.947 77.6V87ZM334.055 77H319.055V28.6H301.855V18.3H304.655C312.055 18.3 317.055 16.6 320.355 10H334.055V77ZM374.063 78C352.463 78 340.563 64.4 340.563 43.5C340.563 22.7 352.463 9 374.063 9C395.563 9 407.563 22.7 407.563 43.5C407.563 64.4 395.563 78 374.063 78ZM374.063 63.4C386.763 63.4 391.463 57.9 391.463 43.5C391.463 29.1 386.763 23.6 374.063 23.6C361.263 23.6 356.663 29.1 356.663 43.5C356.663 57.9 361.263 63.4 374.063 63.4Z" fill="white"/>
<defs>
<linearGradient id="paint0_linear_1_64" x1="-1" y1="106" x2="874" y2="106" gradientUnits="userSpaceOnUse">
<stop stop-color="white"/>
<stop offset="1" stop-color="#D2D4DD"/>
</linearGradient>
</defs>
</svg>
