<svg width="505" height="62" viewBox="0 0 505 62" fill="none" xmlns="http://www.w3.org/2000/svg">
<mask id="path-1-outside-1_134_1043" maskUnits="userSpaceOnUse" x="-1.5" y="10" width="508" height="41" fill="black">
<rect fill="white" x="-1.5" y="10" width="508" height="41"/>
<path d="M11.4 47H2V13.5H11.4V47ZM23.8023 47H14.4023V21.8H23.2023V29.45H23.7023C24.2523 25.25 27.0023 21.3 33.7523 21.3C40.5523 21.3 43.7523 25.4 43.7523 30.85V47H34.3523V34.3C34.3523 30.8 33.0523 29.7 28.9523 29.7C24.8023 29.7 23.8023 30.75 23.8023 34V47ZM67.5813 47H55.9813L44.7812 21.8H55.2813L61.5813 37.85H62.2313L68.5813 21.8H78.8813L67.5813 47ZM89.525 19.5H80.125V13.5H89.525V19.5ZM89.525 47H80.125V21.8H89.525V47ZM111.377 47H104.777C98.4773 47 94.7273 43.95 94.7273 37.4V29.5H91.0273V21.8H94.7273V17.45H104.127V21.8H111.377V29.5H104.127V36.05C104.127 38.05 104.727 38.55 106.877 38.55H111.377V47ZM127.671 47.5C119.121 47.5 113.121 43.85 113.121 34.4C113.121 26.2 119.071 21.3 127.471 21.3C136.171 21.3 141.721 25.65 141.721 33.75C141.721 34.6 141.671 35.25 141.571 36.15H121.821C121.971 39.2 123.321 40.05 127.321 40.05C131.121 40.05 132.121 39.4 132.121 37.9V37.35H141.521V37.95C141.521 43.55 136.171 47.5 127.671 47.5ZM127.271 28.5C123.821 28.5 122.371 29.25 121.971 31.4H132.621C132.271 29.25 130.771 28.5 127.271 28.5ZM180.401 47H171.001V36.35L155.951 13.5H167.601L172.651 21.45L175.501 26.15H176.151L179.001 21.45L184.051 13.5H195.751L180.401 36.4V47ZM210.432 47.5C201.682 47.5 195.732 42.55 195.732 34.4C195.732 26.2 201.682 21.3 210.432 21.3C219.182 21.3 225.132 26.2 225.132 34.4C225.132 42.55 219.182 47.5 210.432 47.5ZM210.432 39.2C214.682 39.2 215.832 38.05 215.832 34.4C215.832 30.75 214.682 29.55 210.432 29.55C206.182 29.55 205.032 30.75 205.032 34.4C205.032 38.05 206.182 39.2 210.432 39.2ZM237.741 47.5C230.691 47.5 227.391 43.4 227.391 37.95V21.8H236.791V34.5C236.791 38 238.141 39.1 242.441 39.1C246.791 39.1 247.841 38.05 247.841 34.8V21.8H257.241V47H248.441V39.35H247.941C247.391 43.55 244.591 47.5 237.741 47.5ZM269.457 47H260.057V21.8H268.857V28.4H269.357C270.057 24.25 272.657 21.3 277.657 21.3C283.207 21.3 285.407 24.95 285.407 30V35H276.007V32.05C276.007 29.95 275.207 29.2 272.757 29.2C270.207 29.2 269.457 29.95 269.457 31.95V47ZM317.748 47H308.348V13.5H338.298V21.95H317.748V26.95H337.548V35.35H317.748V47ZM350.17 47H340.77V21.8H349.57V28.4H350.07C350.77 24.25 353.37 21.3 358.37 21.3C363.92 21.3 366.12 24.95 366.12 30V35H356.72V32.05C356.72 29.95 355.92 29.2 353.47 29.2C350.92 29.2 350.17 29.95 350.17 31.95V47ZM377.513 19.5H368.113V13.5H377.513V19.5ZM377.513 47H368.113V21.8H377.513V47ZM394.566 47.5C386.016 47.5 380.016 43.85 380.016 34.4C380.016 26.2 385.966 21.3 394.366 21.3C403.066 21.3 408.616 25.65 408.616 33.75C408.616 34.6 408.566 35.25 408.466 36.15H388.716C388.866 39.2 390.216 40.05 394.216 40.05C398.016 40.05 399.016 39.4 399.016 37.9V37.35H408.416V37.95C408.416 43.55 403.066 47.5 394.566 47.5ZM394.166 28.5C390.716 28.5 389.266 29.25 388.866 31.4H399.516C399.166 29.25 397.666 28.5 394.166 28.5ZM420.531 47H411.131V21.8H419.931V29.45H420.431C420.981 25.25 423.731 21.3 430.481 21.3C437.281 21.3 440.481 25.4 440.481 30.85V47H431.081V34.3C431.081 30.8 429.781 29.7 425.681 29.7C421.531 29.7 420.531 30.75 420.531 34V47ZM454.71 47.5C447.01 47.5 442.76 42.55 442.76 34.4C442.76 26.2 446.91 21.3 454.31 21.3C460.26 21.3 463.06 24.1 463.81 28.3H464.31V13.5H473.71V47H464.91V40.2H464.41C463.61 45.2 460.61 47.5 454.71 47.5ZM452.26 34.4C452.26 37.75 453.76 38.9 458.11 38.9C462.31 38.9 464.31 38.1 464.31 34.45V34.1C464.31 30.55 462.31 29.85 458.11 29.85C453.76 29.85 452.26 31.05 452.26 34.4ZM490.257 47.5C481.357 47.5 476.607 44.05 476.607 38.25V38.05H486.007V38.55C486.007 39.95 486.907 40.1 490.307 40.1C493.557 40.1 494.057 39.75 494.057 38.9C494.057 38.1 493.657 37.9 491.307 37.65L484.007 36.85C478.807 36.3 476.007 33.85 476.007 29.6C476.007 25.15 479.557 21.3 489.007 21.3C497.757 21.3 502.407 24.45 502.407 30.65V30.85H493.007V30.55C493.007 29.25 492.507 28.65 488.707 28.65C485.657 28.65 485.257 29.05 485.257 30C485.257 30.7 485.657 31.05 488.607 31.35L493.607 31.9C500.957 32.7 503.307 35.15 503.307 39.4C503.307 44.1 498.607 47.5 490.257 47.5Z"/>
</mask>
<path d="M11.4 47V50H14.4V47H11.4ZM2 47H-1V50H2V47ZM2 13.5V10.5H-1V13.5H2ZM11.4 13.5H14.4V10.5H11.4V13.5ZM11.4 44H2V50H11.4V44ZM5 47V13.5H-1V47H5ZM2 16.5H11.4V10.5H2V16.5ZM8.4 13.5V47H14.4V13.5H8.4ZM23.8023 47V50H26.8023V47H23.8023ZM14.4023 47H11.4023V50H14.4023V47ZM14.4023 21.8V18.8H11.4023V21.8H14.4023ZM23.2023 21.8H26.2023V18.8H23.2023V21.8ZM23.2023 29.45H20.2023V32.45H23.2023V29.45ZM23.7023 29.45V32.45H26.3351L26.6769 29.8395L23.7023 29.45ZM43.7523 47V50H46.7523V47H43.7523ZM34.3523 47H31.3523V50H34.3523V47ZM23.8023 44H14.4023V50H23.8023V44ZM17.4023 47V21.8H11.4023V47H17.4023ZM14.4023 24.8H23.2023V18.8H14.4023V24.8ZM20.2023 21.8V29.45H26.2023V21.8H20.2023ZM23.2023 32.45H23.7023V26.45H23.2023V32.45ZM26.6769 29.8395C26.8868 28.2369 27.4863 26.9036 28.4632 25.9801C29.4035 25.0912 30.9897 24.3 33.7523 24.3V18.3C29.765 18.3 26.6012 19.4838 24.3415 21.6199C22.1184 23.7214 21.0679 26.4631 20.7277 29.0605L26.6769 29.8395ZM33.7523 24.3C36.5374 24.3 38.1853 25.1235 39.1458 26.1167C40.1275 27.1319 40.7523 28.6986 40.7523 30.85H46.7523C46.7523 27.5514 45.7772 24.3431 43.4589 21.9458C41.1194 19.5265 37.7673 18.3 33.7523 18.3V24.3ZM40.7523 30.85V47H46.7523V30.85H40.7523ZM43.7523 44H34.3523V50H43.7523V44ZM37.3523 47V34.3H31.3523V47H37.3523ZM37.3523 34.3C37.3523 32.3232 37.0156 30.0034 35.1338 28.4025C33.4069 26.9334 31.063 26.7 28.9523 26.7V32.7C29.8671 32.7 30.4705 32.7637 30.8646 32.8528C31.2445 32.9386 31.301 33.0193 31.2459 32.9725C31.0391 32.7966 31.3523 32.7768 31.3523 34.3H37.3523ZM28.9523 26.7C26.8679 26.7 24.5345 26.9043 22.8521 28.3678C21.0161 29.965 20.8023 32.2681 20.8023 34H26.8023C26.8023 33.3066 26.8601 32.9491 26.9082 32.7807C26.9409 32.6659 26.9279 32.7748 26.7901 32.8947C26.681 32.9895 26.6809 32.9242 27.0423 32.8446C27.4177 32.7619 28.0147 32.7 28.9523 32.7V26.7ZM20.8023 34V47H26.8023V34H20.8023ZM67.5813 47V50H69.5238L70.3186 48.2275L67.5813 47ZM55.9813 47L53.2398 48.2184L54.0316 50H55.9813V47ZM44.7812 21.8V18.8H40.165L42.0398 23.0184L44.7812 21.8ZM55.2812 21.8L58.0738 20.7038L57.3265 18.8H55.2812V21.8ZM61.5813 37.85L58.7887 38.9461L59.536 40.85H61.5813V37.85ZM62.2313 37.85V40.85H64.2706L65.0209 38.9537L62.2313 37.85ZM68.5813 21.8V18.8H66.5419L65.7916 20.6963L68.5813 21.8ZM78.8813 21.8L81.6186 23.0275L83.5143 18.8H78.8813V21.8ZM67.5813 44H55.9813V50H67.5813V44ZM58.7227 45.7816L47.5227 20.5816L42.0398 23.0184L53.2398 48.2184L58.7227 45.7816ZM44.7812 24.8H55.2812V18.8H44.7812V24.8ZM52.4887 22.8961L58.7887 38.9461L64.3738 36.7538L58.0738 20.7038L52.4887 22.8961ZM61.5813 40.85H62.2313V34.85H61.5813V40.85ZM65.0209 38.9537L71.3709 22.9037L65.7916 20.6963L59.4416 36.7463L65.0209 38.9537ZM68.5813 24.8H78.8813V18.8H68.5813V24.8ZM76.1439 20.5725L64.8439 45.7725L70.3186 48.2275L81.6186 23.0275L76.1439 20.5725ZM89.525 19.5V22.5H92.525V19.5H89.525ZM80.125 19.5H77.125V22.5H80.125V19.5ZM80.125 13.5V10.5H77.125V13.5H80.125ZM89.525 13.5H92.525V10.5H89.525V13.5ZM89.525 47V50H92.525V47H89.525ZM80.125 47H77.125V50H80.125V47ZM80.125 21.8V18.8H77.125V21.8H80.125ZM89.525 21.8H92.525V18.8H89.525V21.8ZM89.525 16.5H80.125V22.5H89.525V16.5ZM83.125 19.5V13.5H77.125V19.5H83.125ZM80.125 16.5H89.525V10.5H80.125V16.5ZM86.525 13.5V19.5H92.525V13.5H86.525ZM89.525 44H80.125V50H89.525V44ZM83.125 47V21.8H77.125V47H83.125ZM80.125 24.8H89.525V18.8H80.125V24.8ZM86.525 21.8V47H92.525V21.8H86.525ZM111.377 47V50H114.377V47H111.377ZM94.7273 29.5H97.7273V26.5H94.7273V29.5ZM91.0273 29.5H88.0273V32.5H91.0273V29.5ZM91.0273 21.8V18.8H88.0273V21.8H91.0273ZM94.7273 21.8V24.8H97.7273V21.8H94.7273ZM94.7273 17.45V14.45H91.7273V17.45H94.7273ZM104.127 17.45H107.127V14.45H104.127V17.45ZM104.127 21.8H101.127V24.8H104.127V21.8ZM111.377 21.8H114.377V18.8H111.377V21.8ZM111.377 29.5V32.5H114.377V29.5H111.377ZM104.127 29.5V26.5H101.127V29.5H104.127ZM111.377 38.55H114.377V35.55H111.377V38.55ZM111.377 44H104.777V50H111.377V44ZM104.777 44C102.066 44 100.395 43.3416 99.417 42.4448C98.4851 41.5905 97.7273 40.102 97.7273 37.4H91.7273C91.7273 41.248 92.8446 44.5594 95.3627 46.8677C97.8344 49.1334 101.189 50 104.777 50V44ZM97.7273 37.4V29.5H91.7273V37.4H97.7273ZM94.7273 26.5H91.0273V32.5H94.7273V26.5ZM94.0273 29.5V21.8H88.0273V29.5H94.0273ZM91.0273 24.8H94.7273V18.8H91.0273V24.8ZM97.7273 21.8V17.45H91.7273V21.8H97.7273ZM94.7273 20.45H104.127V14.45H94.7273V20.45ZM101.127 17.45V21.8H107.127V17.45H101.127ZM104.127 24.8H111.377V18.8H104.127V24.8ZM108.377 21.8V29.5H114.377V21.8H108.377ZM111.377 26.5H104.127V32.5H111.377V26.5ZM101.127 29.5V36.05H107.127V29.5H101.127ZM101.127 36.05C101.127 37.121 101.228 38.9718 102.695 40.2849C104.048 41.4967 105.833 41.55 106.877 41.55V35.55C106.664 35.55 106.501 35.5437 106.379 35.534C106.255 35.5242 106.194 35.5127 106.179 35.5094C106.147 35.5024 106.403 35.5515 106.697 35.8151C106.842 35.9445 106.953 36.0882 107.032 36.2253C107.107 36.3563 107.138 36.4558 107.148 36.4921C107.157 36.5257 107.15 36.5128 107.142 36.4317C107.134 36.3514 107.127 36.2288 107.127 36.05H101.127ZM106.877 41.55H111.377V35.55H106.877V41.55ZM108.377 38.55V47H114.377V38.55H108.377ZM141.571 36.15V39.15H144.256L144.553 36.4813L141.571 36.15ZM121.821 36.15V33.15H118.67L118.825 36.2974L121.821 36.15ZM132.121 37.35V34.35H129.121V37.35H132.121ZM141.521 37.35H144.521V34.35H141.521V37.35ZM121.971 31.4L119.022 30.8513L118.361 34.4H121.971V31.4ZM132.621 31.4V34.4H136.149L135.582 30.918L132.621 31.4ZM127.671 44.5C123.754 44.5 120.908 43.654 119.085 42.1684C117.374 40.7737 116.121 38.4502 116.121 34.4H110.121C110.121 39.7998 111.868 44.0263 115.294 46.8191C118.609 49.521 123.038 50.5 127.671 50.5V44.5ZM116.121 34.4C116.121 31.0738 117.302 28.6466 119.136 27.0197C121.013 25.356 123.839 24.3 127.471 24.3V18.3C122.703 18.3 118.354 19.694 115.156 22.5303C111.916 25.4034 110.121 29.5262 110.121 34.4H116.121ZM127.471 24.3C131.359 24.3 134.148 25.2739 135.918 26.775C137.616 28.216 138.721 30.4334 138.721 33.75H144.721C144.721 28.9666 143.051 24.959 139.8 22.2C136.619 19.5011 132.283 18.3 127.471 18.3V24.3ZM138.721 33.75C138.721 34.4524 138.682 34.9846 138.589 35.8187L144.553 36.4813C144.66 35.5154 144.721 34.7476 144.721 33.75H138.721ZM141.571 33.15H121.821V39.15H141.571V33.15ZM118.825 36.2974C118.917 38.1823 119.425 40.327 121.418 41.709C123.111 42.8834 125.314 43.05 127.321 43.05V37.05C126.406 37.05 125.775 36.9996 125.339 36.9192C124.905 36.8392 124.802 36.754 124.837 36.7785C124.917 36.8343 124.961 36.9167 124.954 36.9004C124.924 36.8278 124.846 36.579 124.817 36.0026L118.825 36.2974ZM127.321 43.05C129.224 43.05 131.049 42.9157 132.45 42.2392C133.255 41.8505 134.011 41.2437 134.519 40.341C135.008 39.4739 135.121 38.5926 135.121 37.9H129.121C129.121 37.9574 129.109 37.7199 129.292 37.3965C129.494 37.0376 129.762 36.8745 129.842 36.8358C129.874 36.8202 129.738 36.8895 129.275 36.9517C128.828 37.0117 128.199 37.05 127.321 37.05V43.05ZM135.121 37.9V37.35H129.121V37.9H135.121ZM132.121 40.35H141.521V34.35H132.121V40.35ZM138.521 37.35V37.95H144.521V37.35H138.521ZM138.521 37.95C138.521 39.6752 137.743 41.1863 136.058 42.3709C134.3 43.6067 131.495 44.5 127.671 44.5V50.5C132.347 50.5 136.467 49.4183 139.509 47.2791C142.624 45.0887 144.521 41.8248 144.521 37.95H138.521ZM127.271 25.5C125.45 25.5 123.586 25.6747 122.05 26.5049C120.239 27.4842 119.348 29.0949 119.022 30.8513L124.92 31.9487C124.968 31.6957 125.015 31.649 124.986 31.693C124.943 31.7583 124.889 31.791 124.904 31.7826C124.949 31.7586 125.123 31.6785 125.534 31.6105C125.944 31.5426 126.505 31.5 127.271 31.5V25.5ZM121.971 34.4H132.621V28.4H121.971V34.4ZM135.582 30.918C135.287 29.1048 134.374 27.4744 132.538 26.4962C130.995 25.674 129.112 25.5 127.271 25.5V31.5C128.051 31.5 128.628 31.5427 129.052 31.6118C129.479 31.6813 129.665 31.7639 129.717 31.7913C129.738 31.8029 129.675 31.7679 129.621 31.6857C129.581 31.6233 129.622 31.649 129.66 31.882L135.582 30.918ZM180.401 47V50H183.401V47H180.401ZM171.001 47H168.001V50H171.001V47ZM171.001 36.35H174.001V35.4508L173.507 34.6998L171.001 36.35ZM155.951 13.5V10.5H150.383L153.446 15.1502L155.951 13.5ZM167.601 13.5L170.133 11.8914L169.25 10.5H167.601V13.5ZM172.651 21.45L175.216 19.8945L175.2 19.8678L175.183 19.8414L172.651 21.45ZM175.501 26.15L172.936 27.7055L173.812 29.15H175.501V26.15ZM176.151 26.15V29.15H177.84L178.716 27.7055L176.151 26.15ZM179.001 21.45L176.469 19.8414L176.452 19.8678L176.436 19.8945L179.001 21.45ZM184.051 13.5V10.5H182.403L181.519 11.8914L184.051 13.5ZM195.751 13.5L198.243 15.1704L201.374 10.5H195.751V13.5ZM180.401 36.4L177.909 34.7296L177.401 35.4876V36.4H180.401ZM180.401 44H171.001V50H180.401V44ZM174.001 47V36.35H168.001V47H174.001ZM173.507 34.6998L158.457 11.8498L153.446 15.1502L168.496 38.0002L173.507 34.6998ZM155.951 16.5H167.601V10.5H155.951V16.5ZM165.069 15.1086L170.119 23.0586L175.183 19.8414L170.133 11.8914L165.069 15.1086ZM170.086 23.0055L172.936 27.7055L178.066 24.5945L175.216 19.8945L170.086 23.0055ZM175.501 29.15H176.151V23.15H175.501V29.15ZM178.716 27.7055L181.566 23.0055L176.436 19.8945L173.586 24.5945L178.716 27.7055ZM181.533 23.0586L186.583 15.1086L181.519 11.8914L176.469 19.8414L181.533 23.0586ZM184.051 16.5H195.751V10.5H184.051V16.5ZM193.259 11.8296L177.909 34.7296L182.893 38.0704L198.243 15.1704L193.259 11.8296ZM177.401 36.4V47H183.401V36.4H177.401ZM210.432 44.5C206.605 44.5 203.689 43.42 201.776 41.7475C199.908 40.1147 198.732 37.6946 198.732 34.4H192.732C192.732 39.2554 194.532 43.3853 197.827 46.265C201.076 49.105 205.51 50.5 210.432 50.5V44.5ZM198.732 34.4C198.732 31.0762 199.91 28.6596 201.772 27.0365C203.682 25.3715 206.597 24.3 210.432 24.3V18.3C205.518 18.3 201.082 19.6785 197.83 22.5135C194.53 25.3904 192.732 29.5238 192.732 34.4H198.732ZM210.432 24.3C214.268 24.3 217.182 25.3715 219.092 27.0365C220.955 28.6596 222.132 31.0762 222.132 34.4H228.132C228.132 29.5238 226.335 25.3904 223.035 22.5135C219.782 19.6785 215.347 18.3 210.432 18.3V24.3ZM222.132 34.4C222.132 37.6946 220.957 40.1147 219.089 41.7475C217.176 43.42 214.26 44.5 210.432 44.5V50.5C215.355 50.5 219.789 49.105 223.038 46.265C226.333 43.3853 228.132 39.2554 228.132 34.4H222.132ZM210.432 42.2C212.601 42.2 215.012 41.9625 216.743 40.3893C218.575 38.7253 218.832 36.3452 218.832 34.4H212.832C212.832 36.1048 212.515 36.1247 212.709 35.9482C212.783 35.8808 212.755 35.9559 212.387 36.042C211.998 36.1327 211.386 36.2 210.432 36.2V42.2ZM218.832 34.4C218.832 32.4507 218.573 30.0758 216.762 28.4025C215.033 26.806 212.622 26.55 210.432 26.55V32.55C211.38 32.55 211.986 32.6197 212.368 32.7115C212.729 32.7982 212.759 32.8733 212.691 32.81C212.517 32.6492 212.832 32.6993 212.832 34.4H218.832ZM210.432 26.55C208.243 26.55 205.832 26.806 204.103 28.4025C202.292 30.0758 202.032 32.4507 202.032 34.4H208.032C208.032 32.6993 208.348 32.6492 208.174 32.81C208.106 32.8733 208.136 32.7982 208.497 32.7115C208.879 32.6197 209.485 32.55 210.432 32.55V26.55ZM202.032 34.4C202.032 36.3452 202.29 38.7253 204.121 40.3893C205.853 41.9625 208.264 42.2 210.432 42.2V36.2C209.478 36.2 208.867 36.1327 208.478 36.042C208.11 35.9559 208.082 35.8808 208.156 35.9482C208.35 36.1247 208.032 36.1048 208.032 34.4H202.032ZM227.391 21.8V18.8H224.391V21.8H227.391ZM236.791 21.8H239.791V18.8H236.791V21.8ZM247.841 21.8V18.8H244.841V21.8H247.841ZM257.241 21.8H260.241V18.8H257.241V21.8ZM257.241 47V50H260.241V47H257.241ZM248.441 47H245.441V50H248.441V47ZM248.441 39.35H251.441V36.35H248.441V39.35ZM247.941 39.35V36.35H245.308L244.966 38.9605L247.941 39.35ZM237.741 44.5C234.8 44.5 233.053 43.6573 232.043 42.6474C231.025 41.6289 230.391 40.0757 230.391 37.95H224.391C224.391 41.2743 225.407 44.4961 227.801 46.8901C230.203 49.2927 233.632 50.5 237.741 50.5V44.5ZM230.391 37.95V21.8H224.391V37.95H230.391ZM227.391 24.8H236.791V18.8H227.391V24.8ZM233.791 21.8V34.5H239.791V21.8H233.791ZM233.791 34.5C233.791 36.5048 234.152 38.8456 236.109 40.4388C237.866 41.8695 240.247 42.1 242.441 42.1V36.1C241.47 36.1 240.816 36.0357 240.377 35.9409C239.948 35.8484 239.859 35.7551 239.897 35.7862C240.104 35.9544 239.791 35.9952 239.791 34.5H233.791ZM242.441 42.1C244.612 42.1 246.976 41.8969 248.687 40.4778C250.603 38.8885 250.841 36.5626 250.841 34.8H244.841C244.841 36.2874 244.553 36.1115 244.857 35.8597C244.948 35.7837 244.915 35.8627 244.503 35.9493C244.082 36.0377 243.433 36.1 242.441 36.1V42.1ZM250.841 34.8V21.8H244.841V34.8H250.841ZM247.841 24.8H257.241V18.8H247.841V24.8ZM254.241 21.8V47H260.241V21.8H254.241ZM257.241 44H248.441V50H257.241V44ZM251.441 47V39.35H245.441V47H251.441ZM248.441 36.35H247.941V42.35H248.441V36.35ZM244.966 38.9605C244.758 40.5484 244.155 41.8776 243.159 42.804C242.195 43.7011 240.566 44.5 237.741 44.5V50.5C241.766 50.5 244.961 49.3239 247.247 47.196C249.502 45.0974 250.573 42.3516 250.915 39.7395L244.966 38.9605ZM269.457 47V50H272.457V47H269.457ZM260.057 47H257.057V50H260.057V47ZM260.057 21.8V18.8H257.057V21.8H260.057ZM268.857 21.8H271.857V18.8H268.857V21.8ZM268.857 28.4H265.857V31.4H268.857V28.4ZM269.357 28.4V31.4H271.893L272.315 28.899L269.357 28.4ZM285.407 35V38H288.407V35H285.407ZM276.007 35H273.007V38H276.007V35ZM269.457 44H260.057V50H269.457V44ZM263.057 47V21.8H257.057V47H263.057ZM260.057 24.8H268.857V18.8H260.057V24.8ZM265.857 21.8V28.4H271.857V21.8H265.857ZM268.857 31.4H269.357V25.4H268.857V31.4ZM272.315 28.899C272.586 27.2938 273.177 26.192 273.928 25.4993C274.645 24.8379 275.776 24.3 277.657 24.3V18.3C274.537 18.3 271.868 19.2371 269.861 21.0882C267.887 22.908 266.828 25.3562 266.398 27.901L272.315 28.899ZM277.657 24.3C279.723 24.3 280.717 24.9431 281.277 25.6384C281.928 26.4473 282.407 27.8459 282.407 30H288.407C288.407 27.1041 287.785 24.1527 285.949 21.8741C284.022 19.4819 281.14 18.3 277.657 18.3V24.3ZM282.407 30V35H288.407V30H282.407ZM285.407 32H276.007V38H285.407V32ZM279.007 35V32.05H273.007V35H279.007ZM279.007 32.05C279.007 30.7472 278.784 28.9201 277.293 27.5953C275.911 26.3662 274.11 26.2 272.757 26.2V32.2C272.989 32.2 273.171 32.209 273.313 32.2226C273.455 32.2363 273.54 32.2531 273.582 32.2633C273.663 32.2831 273.51 32.2603 273.307 32.0797C273.208 31.9919 273.128 31.8927 273.068 31.7951C273.01 31.7009 272.985 31.6305 272.978 31.6066C272.971 31.5853 272.98 31.6052 272.989 31.6831C272.998 31.7611 273.007 31.8798 273.007 32.05H279.007ZM272.757 26.2C271.376 26.2 269.572 26.3594 268.189 27.5552C266.664 28.8729 266.457 30.7042 266.457 31.95H272.457C272.457 31.7906 272.464 31.6831 272.472 31.6159C272.48 31.5488 272.487 31.5406 272.476 31.5736C272.465 31.6094 272.435 31.6909 272.37 31.7944C272.303 31.9014 272.215 32.0054 272.112 32.0948C271.903 32.2758 271.753 32.2922 271.857 32.2677C271.907 32.2556 272.003 32.2377 272.158 32.2234C272.313 32.2092 272.509 32.2 272.757 32.2V26.2ZM266.457 31.95V47H272.457V31.95H266.457ZM317.748 47V50H320.748V47H317.748ZM308.348 47H305.348V50H308.348V47ZM308.348 13.5V10.5H305.348V13.5H308.348ZM338.298 13.5H341.298V10.5H338.298V13.5ZM338.298 21.95V24.95H341.298V21.95H338.298ZM317.748 21.95V18.95H314.748V21.95H317.748ZM317.748 26.95H314.748V29.95H317.748V26.95ZM337.548 26.95H340.548V23.95H337.548V26.95ZM337.548 35.35V38.35H340.548V35.35H337.548ZM317.748 35.35V32.35H314.748V35.35H317.748ZM317.748 44H308.348V50H317.748V44ZM311.348 47V13.5H305.348V47H311.348ZM308.348 16.5H338.298V10.5H308.348V16.5ZM335.298 13.5V21.95H341.298V13.5H335.298ZM338.298 18.95H317.748V24.95H338.298V18.95ZM314.748 21.95V26.95H320.748V21.95H314.748ZM317.748 29.95H337.548V23.95H317.748V29.95ZM334.548 26.95V35.35H340.548V26.95H334.548ZM337.548 32.35H317.748V38.35H337.548V32.35ZM314.748 35.35V47H320.748V35.35H314.748ZM350.17 47V50H353.17V47H350.17ZM340.77 47H337.77V50H340.77V47ZM340.77 21.8V18.8H337.77V21.8H340.77ZM349.57 21.8H352.57V18.8H349.57V21.8ZM349.57 28.4H346.57V31.4H349.57V28.4ZM350.07 28.4V31.4H352.606L353.028 28.899L350.07 28.4ZM366.12 35V38H369.12V35H366.12ZM356.72 35H353.72V38H356.72V35ZM350.17 44H340.77V50H350.17V44ZM343.77 47V21.8H337.77V47H343.77ZM340.77 24.8H349.57V18.8H340.77V24.8ZM346.57 21.8V28.4H352.57V21.8H346.57ZM349.57 31.4H350.07V25.4H349.57V31.4ZM353.028 28.899C353.298 27.2938 353.889 26.192 354.641 25.4993C355.358 24.8379 356.489 24.3 358.37 24.3V18.3C355.25 18.3 352.581 19.2371 350.573 21.0882C348.6 22.908 347.541 25.3562 347.111 27.901L353.028 28.899ZM358.37 24.3C360.436 24.3 361.429 24.9431 361.99 25.6384C362.641 26.4473 363.12 27.8459 363.12 30H369.12C369.12 27.1041 368.498 24.1527 366.662 21.8741C364.735 19.4819 361.853 18.3 358.37 18.3V24.3ZM363.12 30V35H369.12V30H363.12ZM366.12 32H356.72V38H366.12V32ZM359.72 35V32.05H353.72V35H359.72ZM359.72 32.05C359.72 30.7472 359.497 28.9201 358.006 27.5953C356.624 26.3662 354.823 26.2 353.47 26.2V32.2C353.702 32.2 353.884 32.209 354.026 32.2226C354.168 32.2363 354.253 32.2531 354.295 32.2633C354.376 32.2831 354.223 32.2603 354.02 32.0797C353.921 31.9919 353.841 31.8927 353.781 31.7951C353.723 31.7009 353.698 31.6305 353.691 31.6066C353.684 31.5853 353.692 31.6052 353.702 31.6831C353.711 31.7611 353.72 31.8798 353.72 32.05H359.72ZM353.47 26.2C352.089 26.2 350.285 26.3594 348.902 27.5552C347.377 28.8729 347.17 30.7042 347.17 31.95H353.17C353.17 31.7906 353.177 31.6831 353.185 31.6159C353.193 31.5488 353.2 31.5406 353.189 31.5736C353.178 31.6094 353.148 31.6909 353.083 31.7944C353.016 31.9014 352.928 32.0054 352.825 32.0948C352.615 32.2758 352.466 32.2922 352.569 32.2677C352.62 32.2556 352.716 32.2377 352.871 32.2234C353.026 32.2092 353.222 32.2 353.47 32.2V26.2ZM347.17 31.95V47H353.17V31.95H347.17ZM377.513 19.5V22.5H380.513V19.5H377.513ZM368.113 19.5H365.113V22.5H368.113V19.5ZM368.113 13.5V10.5H365.113V13.5H368.113ZM377.513 13.5H380.513V10.5H377.513V13.5ZM377.513 47V50H380.513V47H377.513ZM368.113 47H365.113V50H368.113V47ZM368.113 21.8V18.8H365.113V21.8H368.113ZM377.513 21.8H380.513V18.8H377.513V21.8ZM377.513 16.5H368.113V22.5H377.513V16.5ZM371.113 19.5V13.5H365.113V19.5H371.113ZM368.113 16.5H377.513V10.5H368.113V16.5ZM374.513 13.5V19.5H380.513V13.5H374.513ZM377.513 44H368.113V50H377.513V44ZM371.113 47V21.8H365.113V47H371.113ZM368.113 24.8H377.513V18.8H368.113V24.8ZM374.513 21.8V47H380.513V21.8H374.513ZM408.466 36.15V39.15H411.151L411.447 36.4813L408.466 36.15ZM388.716 36.15V33.15H385.564L385.719 36.2974L388.716 36.15ZM399.016 37.35V34.35H396.016V37.35H399.016ZM408.416 37.35H411.416V34.35H408.416V37.35ZM388.866 31.4L385.916 30.8513L385.256 34.4H388.866V31.4ZM399.516 31.4V34.4H403.043L402.477 30.918L399.516 31.4ZM394.566 44.5C390.649 44.5 387.803 43.654 385.98 42.1684C384.269 40.7737 383.016 38.4502 383.016 34.4H377.016C377.016 39.7998 378.763 44.0263 382.189 46.8191C385.504 49.521 389.932 50.5 394.566 50.5V44.5ZM383.016 34.4C383.016 31.0738 384.196 28.6466 386.031 27.0197C387.907 25.356 390.733 24.3 394.366 24.3V18.3C389.598 18.3 385.249 19.694 382.05 22.5303C378.81 25.4034 377.016 29.5262 377.016 34.4H383.016ZM394.366 24.3C398.254 24.3 401.043 25.2739 402.812 26.775C404.51 28.216 405.616 30.4334 405.616 33.75H411.616C411.616 28.9666 409.946 24.959 406.694 22.2C403.513 19.5011 399.178 18.3 394.366 18.3V24.3ZM405.616 33.75C405.616 34.4524 405.577 34.9846 405.484 35.8187L411.447 36.4813C411.555 35.5154 411.616 34.7476 411.616 33.75H405.616ZM408.466 33.15H388.716V39.15H408.466V33.15ZM385.719 36.2974C385.812 38.1823 386.319 40.327 388.312 41.709C390.006 42.8834 392.209 43.05 394.216 43.05V37.05C393.301 37.05 392.67 36.9996 392.233 36.9192C391.799 36.8392 391.696 36.754 391.731 36.7785C391.812 36.8343 391.855 36.9167 391.848 36.9004C391.818 36.8278 391.74 36.579 391.712 36.0026L385.719 36.2974ZM394.216 43.05C396.118 43.05 397.943 42.9157 399.345 42.2392C400.15 41.8505 400.906 41.2437 401.414 40.341C401.902 39.4739 402.016 38.5926 402.016 37.9H396.016C396.016 37.9574 396.004 37.7199 396.186 37.3965C396.388 37.0376 396.656 36.8745 396.736 36.8358C396.769 36.8202 396.632 36.8895 396.169 36.9517C395.723 37.0117 395.093 37.05 394.216 37.05V43.05ZM402.016 37.9V37.35H396.016V37.9H402.016ZM399.016 40.35H408.416V34.35H399.016V40.35ZM405.416 37.35V37.95H411.416V37.35H405.416ZM405.416 37.95C405.416 39.6752 404.637 41.1863 402.953 42.3709C401.195 43.6067 398.39 44.5 394.566 44.5V50.5C399.241 50.5 403.361 49.4183 406.404 47.2791C409.519 45.0887 411.416 41.8248 411.416 37.95H405.416ZM394.166 25.5C392.344 25.5 390.48 25.6747 388.945 26.5049C387.134 27.4842 386.243 29.0949 385.916 30.8513L391.815 31.9487C391.862 31.6957 391.91 31.649 391.881 31.693C391.838 31.7583 391.783 31.791 391.799 31.7826C391.843 31.7586 392.018 31.6785 392.428 31.6105C392.838 31.5426 393.399 31.5 394.166 31.5V25.5ZM388.866 34.4H399.516V28.4H388.866V34.4ZM402.477 30.918C402.181 29.1048 401.269 27.4744 399.433 26.4962C397.89 25.674 396.007 25.5 394.166 25.5V31.5C394.946 31.5 395.522 31.5427 395.947 31.6118C396.374 31.6813 396.56 31.7639 396.611 31.7913C396.633 31.8029 396.57 31.7679 396.516 31.6857C396.475 31.6233 396.517 31.649 396.555 31.882L402.477 30.918ZM420.531 47V50H423.531V47H420.531ZM411.131 47H408.131V50H411.131V47ZM411.131 21.8V18.8H408.131V21.8H411.131ZM419.931 21.8H422.931V18.8H419.931V21.8ZM419.931 29.45H416.931V32.45H419.931V29.45ZM420.431 29.45V32.45H423.064L423.405 29.8395L420.431 29.45ZM440.481 47V50H443.481V47H440.481ZM431.081 47H428.081V50H431.081V47ZM420.531 44H411.131V50H420.531V44ZM414.131 47V21.8H408.131V47H414.131ZM411.131 24.8H419.931V18.8H411.131V24.8ZM416.931 21.8V29.45H422.931V21.8H416.931ZM419.931 32.45H420.431V26.45H419.931V32.45ZM423.405 29.8395C423.615 28.2369 424.215 26.9036 425.192 25.9801C426.132 25.0912 427.718 24.3 430.481 24.3V18.3C426.493 18.3 423.33 19.4838 421.07 21.6199C418.847 23.7214 417.796 26.4631 417.456 29.0605L423.405 29.8395ZM430.481 24.3C433.266 24.3 434.914 25.1235 435.874 26.1167C436.856 27.1319 437.481 28.6986 437.481 30.85H443.481C443.481 27.5514 442.506 24.3431 440.187 21.9458C437.848 19.5265 434.496 18.3 430.481 18.3V24.3ZM437.481 30.85V47H443.481V30.85H437.481ZM440.481 44H431.081V50H440.481V44ZM434.081 47V34.3H428.081V47H434.081ZM434.081 34.3C434.081 32.3232 433.744 30.0034 431.862 28.4025C430.135 26.9334 427.792 26.7 425.681 26.7V32.7C426.596 32.7 427.199 32.7637 427.593 32.8528C427.973 32.9386 428.029 33.0193 427.974 32.9725C427.768 32.7966 428.081 32.7768 428.081 34.3H434.081ZM425.681 26.7C423.596 26.7 421.263 26.9043 419.581 28.3678C417.745 29.965 417.531 32.2681 417.531 34H423.531C423.531 33.3066 423.589 32.9491 423.637 32.7807C423.669 32.6659 423.656 32.7748 423.519 32.8947C423.41 32.9895 423.409 32.9242 423.771 32.8446C424.146 32.7619 424.743 32.7 425.681 32.7V26.7ZM417.531 34V47H423.531V34H417.531ZM463.81 28.3L460.856 28.8274L461.298 31.3H463.81V28.3ZM464.31 28.3V31.3H467.31V28.3H464.31ZM464.31 13.5V10.5H461.31V13.5H464.31ZM473.71 13.5H476.71V10.5H473.71V13.5ZM473.71 47V50H476.71V47H473.71ZM464.91 47H461.91V50H464.91V47ZM464.91 40.2H467.91V37.2H464.91V40.2ZM464.41 40.2V37.2H461.852L461.447 39.726L464.41 40.2ZM454.71 44.5C451.53 44.5 449.425 43.5007 448.08 42.0024C446.693 40.4567 445.76 37.983 445.76 34.4H439.76C439.76 38.967 440.952 43.0433 443.615 46.0101C446.32 49.0243 450.19 50.5 454.71 50.5V44.5ZM445.76 34.4C445.76 30.7715 446.678 28.2857 448.021 26.747C449.311 25.2673 451.308 24.3 454.31 24.3V18.3C449.912 18.3 446.133 19.7827 443.499 22.803C440.916 25.7643 439.76 29.8285 439.76 34.4H445.76ZM454.31 24.3C456.829 24.3 458.285 24.8902 459.14 25.5713C459.975 26.2362 460.576 27.2587 460.856 28.8274L466.763 27.7726C466.293 25.1413 465.12 22.6638 462.879 20.8787C460.659 19.1098 457.741 18.3 454.31 18.3V24.3ZM463.81 31.3H464.31V25.3H463.81V31.3ZM467.31 28.3V13.5H461.31V28.3H467.31ZM464.31 16.5H473.71V10.5H464.31V16.5ZM470.71 13.5V47H476.71V13.5H470.71ZM473.71 44H464.91V50H473.71V44ZM467.91 47V40.2H461.91V47H467.91ZM464.91 37.2H464.41V43.2H464.91V37.2ZM461.447 39.726C461.13 41.7094 460.458 42.7309 459.663 43.3318C458.802 43.9829 457.322 44.5 454.71 44.5V50.5C457.998 50.5 460.968 49.8671 463.281 48.1182C465.661 46.3191 466.889 43.6906 467.372 40.674L461.447 39.726ZM449.26 34.4C449.26 36.4524 449.718 38.7417 451.725 40.2847C453.494 41.6443 455.857 41.9 458.11 41.9V35.9C457.134 35.9 456.455 35.8337 455.985 35.7337C455.522 35.635 455.383 35.5285 455.382 35.5278C455.381 35.5272 455.385 35.5302 455.392 35.5371C455.398 35.5439 455.404 35.5509 455.408 35.5566C455.418 35.57 455.406 35.5585 455.384 35.4994C455.335 35.3615 455.26 35.0384 455.26 34.4H449.26ZM458.11 41.9C460.201 41.9 462.567 41.7451 464.402 40.5703C466.619 39.151 467.31 36.8313 467.31 34.45H461.31C461.31 35.1114 461.216 35.4068 461.176 35.4994C461.159 35.5377 461.174 35.5126 461.167 35.5172C461.109 35.5542 460.892 35.6681 460.349 35.7602C459.808 35.852 459.084 35.9 458.11 35.9V41.9ZM467.31 34.45V34.1H461.31V34.45H467.31ZM467.31 34.1C467.31 31.7334 466.593 29.4387 464.335 28.0754C462.514 26.9763 460.169 26.85 458.11 26.85V32.85C459.097 32.85 459.833 32.8926 460.389 32.9792C460.951 33.0666 461.176 33.1769 461.234 33.2121C461.254 33.2237 461.24 33.218 461.216 33.1911C461.191 33.1637 461.186 33.1475 461.194 33.1651C461.217 33.2174 461.31 33.4701 461.31 34.1H467.31ZM458.11 26.85C455.838 26.85 453.473 27.123 451.705 28.5059C449.718 30.0606 449.26 32.3469 449.26 34.4H455.26C455.26 33.7626 455.335 33.4326 455.387 33.2855C455.41 33.2214 455.424 33.2046 455.418 33.213C455.411 33.2235 455.402 33.2319 455.402 33.2316C455.407 33.2279 455.546 33.1204 456.003 33.0203C456.466 32.9187 457.141 32.85 458.11 32.85V26.85ZM476.607 38.05V35.05H473.607V38.05H476.607ZM486.007 38.05H489.007V35.05H486.007V38.05ZM491.307 37.65L490.98 40.6322L490.99 40.6332L491.307 37.65ZM484.007 36.85L484.334 33.8678L484.323 33.8666L484.007 36.85ZM502.407 30.85V33.85H505.407V30.85H502.407ZM493.007 30.85H490.007V33.85H493.007V30.85ZM488.607 31.35L488.935 28.368L488.923 28.3666L488.911 28.3654L488.607 31.35ZM493.607 31.9L493.279 34.882L493.282 34.8824L493.607 31.9ZM490.257 44.5C486.127 44.5 483.403 43.6885 481.799 42.581C480.344 41.5773 479.607 40.2065 479.607 38.25H473.607C473.607 42.0935 475.245 45.3477 478.39 47.519C481.386 49.5865 485.487 50.5 490.257 50.5V44.5ZM479.607 38.25V38.05H473.607V38.25H479.607ZM476.607 41.05H486.007V35.05H476.607V41.05ZM483.007 38.05V38.55H489.007V38.05H483.007ZM483.007 38.55C483.007 39.1745 483.098 40.1171 483.688 41.021C484.313 41.9801 485.207 42.4585 485.95 42.7015C486.64 42.927 487.373 43.0079 488.009 43.0486C488.676 43.0911 489.452 43.1 490.307 43.1V37.1C489.462 37.1 488.851 37.0901 488.392 37.0608C487.904 37.0296 487.774 36.9855 487.814 36.9985C487.907 37.029 488.364 37.2074 488.714 37.7446C489.028 38.2267 489.007 38.6255 489.007 38.55H483.007ZM490.307 43.1C491.863 43.1 493.325 43.0398 494.429 42.6372C495.085 42.3976 495.891 41.9435 496.454 41.0651C496.997 40.218 497.057 39.3689 497.057 38.9H491.057C491.057 38.8561 491.055 38.3695 491.402 37.8271C491.77 37.2534 492.247 37.0461 492.373 37.0003C492.463 36.9676 492.392 37.0078 491.991 37.0445C491.616 37.0787 491.078 37.1 490.307 37.1V43.1ZM497.057 38.9C497.057 38.4979 497.018 37.7416 496.587 36.9583C496.12 36.1075 495.418 35.6198 494.818 35.3436C493.887 34.9153 492.661 34.7771 491.624 34.6668L490.99 40.6332C491.559 40.6938 491.938 40.7441 492.195 40.7906C492.481 40.8421 492.457 40.8621 492.309 40.7939C492.103 40.6989 491.647 40.4269 491.328 39.8463C491.047 39.3334 491.057 38.9021 491.057 38.9H497.057ZM491.634 34.6679L484.334 33.8679L483.68 39.8321L490.98 40.6321L491.634 34.6679ZM484.323 33.8666C482.081 33.6296 480.774 33.0202 480.062 32.3806C479.438 31.8202 479.007 31.0063 479.007 29.6H473.007C473.007 32.4437 473.976 34.9798 476.052 36.8444C478.04 38.6298 480.733 39.5204 483.691 39.8334L484.323 33.8666ZM479.007 29.6C479.007 28.259 479.495 27.1123 480.739 26.1995C482.099 25.2008 484.629 24.3 489.007 24.3V18.3C483.935 18.3 479.965 19.3242 477.188 21.363C474.294 23.4877 473.007 26.491 473.007 29.6H479.007ZM489.007 24.3C493.106 24.3 495.744 25.0526 497.28 26.1163C498.632 27.0522 499.407 28.4119 499.407 30.65H505.407C505.407 26.6881 503.857 23.3728 500.696 21.1837C497.72 19.1224 493.658 18.3 489.007 18.3V24.3ZM499.407 30.65V30.85H505.407V30.65H499.407ZM502.407 27.85H493.007V33.85H502.407V27.85ZM496.007 30.85V30.55H490.007V30.85H496.007ZM496.007 30.55C496.007 30.0873 495.974 29.3024 495.611 28.4863C495.199 27.5592 494.501 26.8856 493.668 26.4518C492.924 26.0646 492.114 25.8872 491.374 25.7898C490.609 25.689 489.719 25.65 488.707 25.65V31.65C489.595 31.65 490.193 31.686 490.59 31.7384C491.013 31.794 491.04 31.8479 490.896 31.7732C490.806 31.7261 490.657 31.6327 490.5 31.471C490.337 31.3044 490.213 31.1138 490.128 30.9231C489.978 30.5851 490.007 30.3627 490.007 30.55H496.007ZM488.707 25.65C487.894 25.65 487.172 25.6759 486.547 25.7461C485.95 25.813 485.255 25.9386 484.597 26.2376C483.856 26.5743 483.131 27.149 482.681 28.0515C482.285 28.8479 482.257 29.6105 482.257 30H488.257C488.257 29.9145 488.279 30.2709 488.053 30.725C487.93 30.9722 487.76 31.1957 487.559 31.3784C487.366 31.5534 487.188 31.6508 487.08 31.6998C486.903 31.7801 486.88 31.7464 487.216 31.7086C487.523 31.6741 487.995 31.65 488.707 31.65V25.65ZM482.257 30C482.257 30.4415 482.315 31.2302 482.81 32.0355C483.308 32.8447 484.014 33.2975 484.587 33.5573C485.566 34.0013 486.881 34.1899 488.304 34.3346L488.911 28.3654C488.214 28.2945 487.731 28.2268 487.399 28.1637C487.044 28.0963 486.984 28.0563 487.064 28.0927C487.169 28.14 487.591 28.3553 487.921 28.8926C488.249 29.426 488.257 29.9085 488.257 30H482.257ZM488.279 34.332L493.279 34.882L493.935 28.918L488.935 28.368L488.279 34.332ZM493.282 34.8824C496.774 35.2624 498.482 35.9912 499.303 36.6695C499.926 37.1839 500.307 37.8852 500.307 39.4H506.307C506.307 36.6648 505.513 34.0161 503.123 32.043C500.932 30.2338 497.79 29.3376 493.932 28.9176L493.282 34.8824ZM500.307 39.4C500.307 40.601 499.764 41.7344 498.282 42.6947C496.707 43.7152 494.075 44.5 490.257 44.5V50.5C494.789 50.5 498.682 49.5848 501.544 47.7303C504.5 45.8156 506.307 42.899 506.307 39.4H500.307Z" fill="#FAC764" mask="url(#path-1-outside-1_134_1043)"/>
</svg>
