<svg width="17" height="18" viewBox="0 0 17 18" fill="none" xmlns="http://www.w3.org/2000/svg">
<path d="M15.879 4.35333C16.707 3.47387 16.707 2.04133 15.879 1.16187C15.0511 0.2824 13.7025 0.2824 12.8745 1.16187L12.5032 1.55627V0.5H4.4968V1.55627L4.1255 1.16187C3.29755 0.2824 1.94892 0.2824 1.12097 1.16187C0.293011 2.04133 0.293011 3.47387 1.12097 4.35333L4.50534 7.94827C5.11563 8.59653 5.11563 9.6528 4.50534 10.3011L5.6363 11.5024C6.02467 11.0899 6.27647 10.5912 6.42158 10.0653C6.80995 10.3192 7.23673 10.5141 7.69765 10.6139V12.4H6.09723V15.8L4.4968 17.5H12.4989L10.8985 15.8V12.4H9.29808V10.6139C9.759 10.5141 10.1858 10.3192 10.5742 10.0653C10.7193 10.5912 10.9711 11.0899 11.3594 11.5024L12.4904 10.3011C11.8801 9.6528 11.8801 8.59653 12.4904 7.94827L15.879 4.35333ZM14.0055 2.3632C14.2018 2.15467 14.5475 2.15467 14.7481 2.3632C14.9529 2.5808 14.9529 2.9344 14.7481 3.152L12.5032 5.53653V3.96347H12.4989L14.0055 2.3632ZM4.50107 5.53653H4.4968L2.25193 3.152C2.04708 2.9344 2.04708 2.5808 2.25193 2.3632C2.45252 2.15467 2.79395 2.15467 2.99453 2.3632L4.50107 3.96347V5.53653ZM8.5 8.13413C7.17271 8.13413 6.10149 6.99173 6.10149 5.58187C6.10149 4.172 7.17698 3.03413 8.5 3.03413C9.82302 3.03413 10.9028 4.17653 10.9028 5.58187C10.9028 6.99173 9.82729 8.13413 8.5 8.13413Z" fill="#221F1F"/>
</svg>
