<svg width="222" height="52" viewBox="0 0 222 52" fill="none" xmlns="http://www.w3.org/2000/svg">
<path d="M43.7312 23.6075C43.7312 35.426 34.3774 45.0068 22.8388 45.0068C11.3002 45.0068 1.94629 35.426 1.94629 23.6075C1.94629 11.7889 11.3002 2.20813 22.8388 2.20813C34.3774 2.20813 43.7312 11.7889 43.7312 23.6075Z" fill="url(#paint0_linear_1_344)"/>
<path fill-rule="evenodd" clip-rule="evenodd" d="M45.6779 23.6069C45.6779 36.5266 35.4526 47 22.839 47C10.2253 47 0 36.5266 0 23.6069C0 10.6873 10.2253 0.213867 22.839 0.213867C35.4526 0.213867 45.6779 10.6873 45.6779 23.6069ZM22.839 45.0063C34.3775 45.0063 43.7314 35.4255 43.7314 23.6069C43.7314 11.7884 34.3775 2.2076 22.839 2.2076C11.3004 2.2076 1.9465 11.7884 1.9465 23.6069C1.9465 35.4255 11.3004 45.0063 22.839 45.0063Z" fill="white"/>
<g filter="url(#filter0_d_1_344)">
<path d="M23.537 8.87327C23.2627 8.19898 22.3707 8.19898 22.0964 8.87327C18.7542 17.0921 12.5358 22.1019 11.4983 22.8964C11.0575 23.2339 11.0575 23.9348 11.4983 24.2723C12.5358 25.0668 18.7542 30.0766 22.0964 38.2954C22.3707 38.9697 23.2627 38.9697 23.537 38.2954C26.8793 30.0766 33.0976 25.0668 34.1351 24.2723C34.5759 23.9348 34.5759 23.2339 34.1351 22.8964C33.0976 22.1019 26.8793 17.0921 23.537 8.87327Z" fill="url(#paint1_linear_1_344)"/>
</g>
<path fill-rule="evenodd" clip-rule="evenodd" d="M22.8167 10.4981C19.6274 17.5663 14.5305 22.1335 12.7506 23.5844C14.5305 25.0352 19.6274 29.6024 22.8167 36.6706C26.0061 29.6024 31.103 25.0352 32.8828 23.5844C31.103 22.1335 26.0061 17.5663 22.8167 10.4981ZM22.0964 8.87327C22.3707 8.19898 23.2627 8.19898 23.537 8.87327C26.8793 17.0921 33.0976 22.1019 34.1351 22.8964C34.5759 23.2339 34.5759 23.9348 34.1351 24.2723C33.0976 25.0668 26.8793 30.0766 23.537 38.2954C23.2627 38.9697 22.3707 38.9697 22.0964 38.2954C18.7542 30.0766 12.5358 25.0668 11.4983 24.2723C11.0575 23.9348 11.0575 23.2339 11.4983 22.8964C12.5358 22.1019 18.7542 17.0921 22.0964 8.87327Z" fill="url(#paint2_linear_1_344)"/>
<path d="M160.41 28.6069C159.072 28.6069 157.858 28.3838 156.77 27.9375C155.681 27.4678 154.739 26.8102 153.945 25.9646C153.152 25.0956 152.55 24.0739 152.142 22.8996C151.734 21.7018 151.53 20.3748 151.53 18.9186C151.53 16.9456 151.893 15.2428 152.619 13.8101C153.367 12.3539 154.41 11.2265 155.749 10.428C157.11 9.60592 158.709 9.1949 160.546 9.1949C162.066 9.1949 163.416 9.4885 164.595 10.0757C165.775 10.6629 166.716 11.4849 167.419 12.5418C168.145 13.5752 168.542 14.7848 168.61 16.1705H164.459C164.345 15.4424 164.096 14.8318 163.711 14.3386C163.347 13.8454 162.882 13.4695 162.315 13.2112C161.748 12.9529 161.125 12.8237 160.444 12.8237C159.468 12.8237 158.629 13.082 157.926 13.5987C157.223 14.092 156.69 14.7966 156.327 15.7126C155.987 16.6286 155.817 17.6972 155.817 18.9186C155.817 20.2573 156.009 21.3729 156.395 22.2654C156.781 23.158 157.314 23.8391 157.994 24.3088C158.697 24.755 159.503 24.9782 160.41 24.9782C161.204 24.9782 161.896 24.8373 162.485 24.5554C163.075 24.2501 163.54 23.839 163.881 23.3224C164.243 22.7822 164.459 22.1715 164.527 21.4903H168.678C168.587 22.9231 168.179 24.1797 167.453 25.26C166.727 26.3169 165.763 27.139 164.561 27.7262C163.359 28.3133 161.975 28.6069 160.41 28.6069Z" fill="white"/>
<path d="M145.176 28.2899V9.54734H149.428V28.2899H145.176ZM145.176 6.90503V2.60693H149.428V6.90503H145.176Z" fill="white"/>
<path d="M139.491 28.2898C138.379 28.2898 137.506 28.1254 136.871 27.7966C136.258 27.4443 135.827 26.9511 135.578 26.3169C135.329 25.6828 135.204 24.9194 135.204 24.0269V13.1054H131.87V9.54719H135.204V4.26257L139.423 3.80461V9.54719H143.268V13.1054H139.423V23.2166C139.423 23.8038 139.548 24.203 139.797 24.4145C140.047 24.6024 140.432 24.6963 140.954 24.6963H143.268V28.2898H139.491Z" fill="white"/>
<path d="M114.471 28.2899V9.54721H118.554L118.724 13.1055H118.929C119.45 11.7902 120.244 10.8155 121.31 10.1814C122.376 9.52374 123.567 9.1949 124.883 9.1949C125.79 9.1949 126.629 9.34756 127.4 9.65292C128.194 9.93476 128.875 10.3928 129.442 11.0269C130.032 11.6376 130.485 12.4479 130.803 13.4578C131.143 14.4443 131.313 15.6421 131.313 17.0513V28.2899H127.06V18.0025C127.06 16.8282 126.924 15.8652 126.652 15.1137C126.38 14.3386 125.96 13.7631 125.393 13.3873C124.849 13.0116 124.134 12.8237 123.25 12.8237C122.297 12.8237 121.48 13.0585 120.8 13.5283C120.142 13.998 119.632 14.6204 119.268 15.3955C118.906 16.1705 118.724 17.0278 118.724 17.9673V28.2899H114.471Z" fill="white"/>
<path d="M100.791 28.6069C99.7027 28.6069 98.7047 28.4073 97.7974 28.008C96.9131 27.5852 96.1418 26.9629 95.4836 26.1408C94.8489 25.3188 94.3608 24.3088 94.021 23.111C93.6807 21.8897 93.5106 20.4922 93.5106 18.9186C93.5106 16.7812 93.8055 14.9962 94.395 13.5635C95.0073 12.1073 95.858 11.0152 96.9467 10.2871C98.0583 9.55898 99.34 9.1949 100.791 9.1949C101.79 9.1949 102.674 9.35932 103.446 9.68816C104.239 9.99347 104.92 10.428 105.487 10.9917C106.054 11.5554 106.485 12.2248 106.78 12.9998H107.018L107.188 9.54721H111.271V28.2899H107.018V24.802H106.78C106.349 25.9529 105.612 26.8806 104.568 27.5852C103.525 28.2664 102.266 28.6069 100.791 28.6069ZM102.391 25.0134C103.411 25.0134 104.251 24.7668 104.909 24.2736C105.589 23.7803 106.1 23.1462 106.439 22.3711C106.78 21.5726 106.95 20.7388 106.95 19.8698V17.9321C106.95 17.0396 106.78 16.2058 106.439 15.4307C106.1 14.6322 105.589 13.998 104.909 13.5283C104.251 13.035 103.411 12.7884 102.391 12.7884C101.484 12.7884 100.689 13.0116 100.009 13.4578C99.3288 13.9041 98.7954 14.5852 98.4098 15.5012C98.0241 16.3937 97.8316 17.5328 97.8316 18.9186C97.8316 20.2573 98.0241 21.3847 98.4098 22.3007C98.7954 23.2167 99.3288 23.8978 100.009 24.344C100.689 24.7903 101.484 25.0134 102.391 25.0134Z" fill="white"/>
<path d="M87.1559 28.2899V2.60693H91.4091V28.2899H87.1559Z" fill="white"/>
<path d="M81.4716 28.2898C80.36 28.2898 79.4868 28.1254 78.8516 27.7966C78.2392 27.4443 77.8082 26.9511 77.5586 26.3169C77.309 25.6828 77.1842 24.9194 77.1842 24.0269V13.1054H73.85V9.54719H77.1842V4.26257L81.4033 3.80461V9.54719H85.248V13.1054H81.4033V23.2166C81.4033 23.8038 81.5281 24.203 81.7777 24.4145C82.0268 24.6024 82.4125 24.6963 82.9347 24.6963H85.248V28.2898H81.4716Z" fill="white"/>
<path d="M52.678 28.2899L61.2181 2.60693H67.5467L76.0869 28.2899H71.4256L69.5544 22.6531H59.2109L57.3734 28.2899H52.678ZM60.2996 19.0596H68.4994L66.0495 11.8373L64.4846 6.8698H64.3144L62.7153 11.8373L60.2996 19.0596Z" fill="white"/>
<path d="M54.776 47H54.056V36.28H59.08C61.192 36.28 62.712 37.4 62.712 39.336C62.712 41.176 61.288 42.328 59.304 42.328V42.392C59.912 42.568 60.328 43 60.696 43.576L62.856 47H62.056L59.992 43.784C59.432 42.872 58.808 42.456 57.32 42.456H54.776V47ZM54.776 36.936V41.832H59.08C60.952 41.832 61.976 41.048 61.976 39.384C61.976 37.72 60.952 36.936 59.08 36.936H54.776ZM65.0573 38.056H64.3372V36.28H65.0573V38.056ZM65.0573 47H64.3372V39.144H65.0573V47ZM70.7814 47.16C68.3334 47.16 66.7174 45.416 66.7174 43.064C66.7174 40.728 68.3334 38.984 70.7814 38.984C72.8614 38.984 74.5894 40.264 74.5894 42.104V42.2H73.8854V42.12C73.8854 40.584 72.7654 39.624 70.7814 39.624C68.4294 39.624 67.4214 40.968 67.4214 43.064C67.4214 45.16 68.4294 46.504 70.7814 46.504C72.7654 46.504 73.8854 45.56 73.8854 44.024V43.928H74.5894V44.024C74.5894 45.864 72.8614 47.16 70.7814 47.16ZM76.9948 47H76.2747V36.28H76.9948V41.544H77.0428C77.3148 40.232 78.3708 38.984 80.3708 38.984C82.5948 38.984 83.7148 40.472 83.7148 42.52V47H83.0108V42.472C83.0108 40.504 82.0668 39.624 80.1948 39.624C77.9228 39.624 76.9948 41.208 76.9948 43.4V47ZM89.6354 47H88.9154V36.28H93.6194C95.8914 36.28 97.5234 37.576 97.5234 39.816C97.5234 42.056 95.8914 43.352 93.6194 43.352H89.6354V47ZM93.5874 36.936H89.6354V42.696H93.5874C95.6674 42.696 96.8034 41.784 96.8034 39.816C96.8034 37.848 95.6674 36.936 93.5874 36.936ZM102.516 47.16C100.004 47.16 98.4518 45.448 98.4518 43.064C98.4518 40.728 99.9878 38.984 102.516 38.984C104.708 38.984 106.324 40.296 106.324 42.6C106.324 42.888 106.292 43.144 106.244 43.32H99.1398C99.2038 45.272 100.228 46.536 102.5 46.536C104.516 46.536 105.508 45.752 105.508 44.44V44.344H106.212V44.44C106.212 46.056 104.596 47.16 102.516 47.16ZM102.5 39.592C100.228 39.592 99.2038 40.856 99.1398 42.808H105.652C105.668 42.68 105.668 42.568 105.668 42.44C105.668 40.6 104.484 39.592 102.5 39.592ZM111.754 47.16C109.21 47.16 107.546 45.416 107.546 43.064C107.546 40.728 109.21 38.984 111.754 38.984C114.282 38.984 115.962 40.728 115.962 43.064C115.962 45.416 114.282 47.16 111.754 47.16ZM111.754 46.52C114.122 46.52 115.258 45.16 115.258 43.064C115.258 40.984 114.122 39.624 111.754 39.624C109.386 39.624 108.25 40.984 108.25 43.064C108.25 45.16 109.386 46.52 111.754 46.52ZM118.339 49.72H117.618V39.144H118.243V41.368H118.371C118.739 39.992 119.987 38.984 121.843 38.984C124.307 38.984 125.731 40.728 125.731 43.064C125.731 45.416 124.323 47.16 121.779 47.16C120.067 47.16 118.723 46.184 118.339 44.696V49.72ZM118.339 43.224C118.339 45.256 119.699 46.504 121.667 46.504C123.635 46.504 125.01 45.64 125.01 43.064C125.01 40.504 123.603 39.64 121.715 39.64C119.619 39.64 118.339 40.936 118.339 43.064V43.224ZM127.964 47H127.243V36.28H127.964V47ZM133.688 47.16C131.176 47.16 129.624 45.448 129.624 43.064C129.624 40.728 131.16 38.984 133.688 38.984C135.88 38.984 137.496 40.296 137.496 42.6C137.496 42.888 137.464 43.144 137.416 43.32H130.312C130.376 45.272 131.4 46.536 133.672 46.536C135.688 46.536 136.68 45.752 136.68 44.44V44.344H137.384V44.44C137.384 46.056 135.768 47.16 133.688 47.16ZM133.672 39.592C131.4 39.592 130.376 40.856 130.312 42.808H136.824C136.84 42.68 136.84 42.568 136.84 42.44C136.84 40.6 135.656 39.592 133.672 39.592ZM147.01 47.16C144.034 47.16 141.842 44.984 141.842 41.64C141.842 38.296 144.066 36.12 147.09 36.12C149.682 36.12 151.746 37.624 151.746 39.944V40.088H150.994V39.944C150.994 37.992 149.57 36.808 147.09 36.808C144.29 36.808 142.578 38.552 142.578 41.64C142.578 44.728 144.29 46.456 147.074 46.456C149.602 46.456 151.042 45.32 151.042 43.048V42.456H146.562V41.848H151.746V47H151.138V44.648H151.074C150.482 46.488 148.786 47.16 147.01 47.16ZM155.762 47.16C154.258 47.16 153.202 46.44 153.202 45.192C153.202 43.864 154.354 43.368 155.73 43.208L159.618 42.76V42.056C159.618 40.344 158.866 39.624 156.994 39.624C155.122 39.624 154.098 40.344 154.098 41.88V41.96H153.394V41.88C153.394 40.328 154.674 38.984 157.026 38.984C159.33 38.984 160.29 40.344 160.29 41.976V47H159.666V44.776H159.618C159.106 46.296 157.634 47.16 155.762 47.16ZM153.906 45.144C153.906 46.072 154.498 46.568 155.874 46.568C157.874 46.568 159.618 45.56 159.618 43.432V43.288L155.986 43.704C154.594 43.848 153.906 44.168 153.906 45.144ZM163.073 47H162.353V39.144H162.977V41.496H163.025C163.249 40.168 164.209 38.984 166.161 38.984C167.905 38.984 168.913 40.056 169.185 41.608H169.249C169.473 40.248 170.465 38.984 172.417 38.984C174.481 38.984 175.569 40.472 175.569 42.52V47H174.865V42.472C174.865 40.568 174.017 39.624 172.257 39.624C170.209 39.624 169.313 40.904 169.313 43.24V47H168.609V42.472C168.609 40.568 167.761 39.624 166.017 39.624C163.937 39.624 163.073 40.904 163.073 43.24V47ZM181.266 47.16C178.754 47.16 177.202 45.448 177.202 43.064C177.202 40.728 178.738 38.984 181.266 38.984C183.458 38.984 185.074 40.296 185.074 42.6C185.074 42.888 185.042 43.144 184.994 43.32H177.89C177.954 45.272 178.978 46.536 181.25 46.536C183.266 46.536 184.258 45.752 184.258 44.44V44.344H184.962V44.44C184.962 46.056 183.346 47.16 181.266 47.16ZM181.25 39.592C178.978 39.592 177.954 40.856 177.89 42.808H184.402C184.418 42.68 184.418 42.568 184.418 42.44C184.418 40.6 183.234 39.592 181.25 39.592ZM194.717 47.16C191.661 47.16 189.421 44.984 189.421 41.64C189.421 38.296 191.661 36.12 194.717 36.12C197.789 36.12 200.013 38.296 200.013 41.64C200.013 44.984 197.789 47.16 194.717 47.16ZM194.717 46.456C197.549 46.456 199.277 44.728 199.277 41.64C199.277 38.552 197.549 36.808 194.717 36.808C191.885 36.808 190.157 38.552 190.157 41.64C190.157 44.728 191.885 46.456 194.717 46.456ZM202.417 47H201.697V39.144H202.321V41.624H202.385C202.673 40.28 203.857 38.984 205.777 38.984C208.017 38.984 209.137 40.616 209.137 42.52V47H208.417V42.472C208.417 40.712 207.553 39.624 205.633 39.624C203.569 39.624 202.417 40.984 202.417 43.24V47ZM211.917 47H211.197V36.28H211.917V47ZM214.921 49.72H214.025V49.064H214.969C215.833 49.064 216.153 48.792 216.505 48.072L217.017 46.968L213.097 39.144H213.865L216.393 44.184L217.337 46.136H217.401L218.329 44.184L220.745 39.144H221.497L217.113 48.28C216.617 49.336 215.977 49.72 214.921 49.72Z" fill="white"/>
<defs>
<filter id="filter0_d_1_344" x="6.58514" y="4.78741" width="32.4631" height="39.5988" filterUnits="userSpaceOnUse" color-interpolation-filters="sRGB">
<feFlood flood-opacity="0" result="BackgroundImageFix"/>
<feColorMatrix in="SourceAlpha" type="matrix" values="0 0 0 0 0 0 0 0 0 0 0 0 0 0 0 0 0 0 127 0" result="hardAlpha"/>
<feOffset dy="1.00244"/>
<feGaussianBlur stdDeviation="2.29129"/>
<feComposite in2="hardAlpha" operator="out"/>
<feColorMatrix type="matrix" values="0 0 0 0 0 0 0 0 0 0 0 0 0 0 0 0 0 0 0.21 0"/>
<feBlend mode="normal" in2="BackgroundImageFix" result="effect1_dropShadow_1_344"/>
<feBlend mode="normal" in="SourceGraphic" in2="effect1_dropShadow_1_344" result="shape"/>
</filter>
<linearGradient id="paint0_linear_1_344" x1="37.5615" y1="46.9688" x2="13.0697" y2="0.771163" gradientUnits="userSpaceOnUse">
<stop offset="0.0700125" stop-color="white"/>
<stop offset="0.175313" stop-color="#EFC062"/>
<stop offset="0.354324" stop-color="#FEDE7A"/>
<stop offset="0.663206" stop-color="#BC9D55"/>
<stop offset="0.933478" stop-color="#0C0C0C"/>
</linearGradient>
<linearGradient id="paint1_linear_1_344" x1="22.8167" y1="8.36757" x2="39.9422" y2="39.3477" gradientUnits="userSpaceOnUse">
<stop offset="0.109375" stop-color="white"/>
<stop offset="1" stop-color="white" stop-opacity="0"/>
</linearGradient>
<linearGradient id="paint2_linear_1_344" x1="39.9895" y1="46.5579" x2="13.8225" y2="10.2126" gradientUnits="userSpaceOnUse">
<stop stop-color="white"/>
<stop offset="1" stop-color="white" stop-opacity="0"/>
</linearGradient>
</defs>
</svg>
