<svg width="33" height="32" viewBox="0 0 33 32" fill="none" xmlns="http://www.w3.org/2000/svg">
<path d="M11.1667 4H7.16667C6.45942 4 5.78115 4.28095 5.28105 4.78105C4.78095 5.28115 4.5 5.95942 4.5 6.66667V10.6667M28.5 10.6667V6.66667C28.5 5.95942 28.219 5.28115 27.719 4.78105C27.2189 4.28095 26.5406 4 25.8333 4H21.8333M21.8333 28H25.8333C26.5406 28 27.2189 27.719 27.719 27.219C28.219 26.7189 28.5 26.0406 28.5 25.3333V21.3333M4.5 21.3333V25.3333C4.5 26.0406 4.78095 26.7189 5.28105 27.219C5.78115 27.719 6.45942 28 7.16667 28H11.1667" stroke="white" stroke-width="3" stroke-linecap="round" stroke-linejoin="round"/>
</svg>
