<svg width="419" height="62" viewBox="0 0 419 62" fill="none" xmlns="http://www.w3.org/2000/svg">
<mask id="path-1-outside-1_1_74" maskUnits="userSpaceOnUse" x="-3" y="10" width="229" height="41" fill="black">
<rect fill="white" x="-3" y="10" width="229" height="41"/>
<path d="M22 47H12.6V21.95H0.75V13.5H33.8V21.95H22V47ZM45.4703 47H36.0703V13.5H45.4703V47ZM66.4727 47.5C54.8227 47.5 47.9727 40.7 47.9727 30.25C47.9727 19.8 54.8227 13 66.4727 13C77.7227 13 84.4727 18.35 84.4727 27.3V28.15H73.9727V27.3C73.9727 23.5 72.1727 22 66.6227 22C59.8227 22 57.9727 23.6 57.9727 30.25C57.9727 36.9 59.8227 38.5 66.6227 38.5C72.1727 38.5 73.9727 37 73.9727 33.2V32.35H84.4727V33.2C84.4727 42.15 77.7227 47.5 66.4727 47.5ZM96.3492 47H86.9492V13.5H96.3492V25.95H103.099L111.249 13.5H122.499L110.899 29.95L122.249 47H110.999L103.199 35.1H96.3492V47ZM153.271 47H123.521V13.5H153.271V21.95H132.921V25.95H152.521V34.35H132.921V38.55H153.271V47ZM176.443 47H167.043V21.95H155.193V13.5H188.243V21.95H176.443V47ZM206.764 47.5C196.514 47.5 190.264 43.85 190.264 35.35V35.05H199.664V36.1C199.664 38.35 200.464 38.95 206.764 38.95C212.464 38.95 213.064 38.5 213.064 37C213.064 35.8 212.414 35.3 209.664 34.95L199.164 33.55C192.914 32.7 189.764 29.35 189.764 23.95C189.764 18.6 193.914 13 206.014 13C216.664 13 221.764 17.65 221.764 25.15V25.45H212.364V24.7C212.364 22.3 211.314 21.5 205.014 21.5C200.214 21.5 199.164 22.15 199.164 23.6C199.164 24.65 199.764 25.15 201.564 25.4L212.064 26.95C220.264 28.15 222.464 32.35 222.464 36.65C222.464 42.4 218.064 47.5 206.764 47.5Z"/>
</mask>
<path d="M22 47V50H25V47H22ZM12.6 47H9.6V50H12.6V47ZM12.6 21.95H15.6V18.95H12.6V21.95ZM0.75 21.95H-2.25V24.95H0.75V21.95ZM0.75 13.5V10.5H-2.25V13.5H0.75ZM33.8 13.5H36.8V10.5H33.8V13.5ZM33.8 21.95V24.95H36.8V21.95H33.8ZM22 21.95V18.95H19V21.95H22ZM22 44H12.6V50H22V44ZM15.6 47V21.95H9.6V47H15.6ZM12.6 18.95H0.75V24.95H12.6V18.95ZM3.75 21.95V13.5H-2.25V21.95H3.75ZM0.75 16.5H33.8V10.5H0.75V16.5ZM30.8 13.5V21.95H36.8V13.5H30.8ZM33.8 18.95H22V24.95H33.8V18.95ZM19 21.95V47H25V21.95H19ZM45.4703 47V50H48.4703V47H45.4703ZM36.0703 47H33.0703V50H36.0703V47ZM36.0703 13.5V10.5H33.0703V13.5H36.0703ZM45.4703 13.5H48.4703V10.5H45.4703V13.5ZM45.4703 44H36.0703V50H45.4703V44ZM39.0703 47V13.5H33.0703V47H39.0703ZM36.0703 16.5H45.4703V10.5H36.0703V16.5ZM42.4703 13.5V47H48.4703V13.5H42.4703ZM84.4727 28.15V31.15H87.4727V28.15H84.4727ZM73.9727 28.15H70.9727V31.15H73.9727V28.15ZM73.9727 32.35V29.35H70.9727V32.35H73.9727ZM84.4727 32.35H87.4727V29.35H84.4727V32.35ZM66.4727 44.5C61.2264 44.5 57.4062 42.9773 54.9187 40.6174C52.4472 38.2726 50.9727 34.801 50.9727 30.25H44.9727C44.9727 36.149 46.9231 41.3024 50.7891 44.9701C54.6391 48.6227 60.0689 50.5 66.4727 50.5V44.5ZM50.9727 30.25C50.9727 25.699 52.4472 22.2274 54.9187 19.8826C57.4062 17.5227 61.2264 16 66.4727 16V10C60.0689 10 54.6391 11.8773 50.7891 15.5299C46.9231 19.1976 44.9727 24.351 44.9727 30.25H50.9727ZM66.4727 16C71.6648 16 75.427 17.2386 77.826 19.1433C80.1373 20.9783 81.4727 23.6531 81.4727 27.3H87.4727C87.4727 21.9969 85.433 17.5217 81.5568 14.4442C77.7683 11.4364 72.5305 10 66.4727 10V16ZM81.4727 27.3V28.15H87.4727V27.3H81.4727ZM84.4727 25.15H73.9727V31.15H84.4727V25.15ZM76.9727 28.15V27.3H70.9727V28.15H76.9727ZM76.9727 27.3C76.9727 24.9641 76.4082 22.4817 74.1684 20.8171C72.1935 19.3495 69.4922 19 66.6227 19V25C69.3031 25 70.2768 25.4005 70.5895 25.6329C70.6371 25.6683 70.9727 25.8359 70.9727 27.3H76.9727ZM66.6227 19C63.2584 19 59.9542 19.324 57.6951 21.4433C55.3725 23.6221 54.9727 26.898 54.9727 30.25H60.9727C60.9727 26.952 61.4978 26.1029 61.8002 25.8192C62.1661 25.476 63.1869 25 66.6227 25V19ZM54.9727 30.25C54.9727 33.602 55.3725 36.8779 57.6951 39.0567C59.9542 41.176 63.2584 41.5 66.6227 41.5V35.5C63.1869 35.5 62.1661 35.024 61.8002 34.6808C61.4978 34.3971 60.9727 33.548 60.9727 30.25H54.9727ZM66.6227 41.5C69.4922 41.5 72.1935 41.1505 74.1684 39.6829C76.4082 38.0183 76.9727 35.5359 76.9727 33.2H70.9727C70.9727 34.6641 70.6371 34.8317 70.5895 34.8671C70.2768 35.0995 69.3031 35.5 66.6227 35.5V41.5ZM76.9727 33.2V32.35H70.9727V33.2H76.9727ZM73.9727 35.35H84.4727V29.35H73.9727V35.35ZM81.4727 32.35V33.2H87.4727V32.35H81.4727ZM81.4727 33.2C81.4727 36.8469 80.1373 39.5217 77.826 41.3567C75.427 43.2614 71.6648 44.5 66.4727 44.5V50.5C72.5305 50.5 77.7683 49.0636 81.5568 46.0558C85.433 42.9783 87.4727 38.5031 87.4727 33.2H81.4727ZM96.3492 47V50H99.3492V47H96.3492ZM86.9492 47H83.9492V50H86.9492V47ZM86.9492 13.5V10.5H83.9492V13.5H86.9492ZM96.3492 13.5H99.3492V10.5H96.3492V13.5ZM96.3492 25.95H93.3492V28.95H96.3492V25.95ZM103.099 25.95V28.95H104.721L105.609 27.5931L103.099 25.95ZM111.249 13.5V10.5H109.627L108.739 11.8569L111.249 13.5ZM122.499 13.5L124.951 15.2289L128.286 10.5H122.499V13.5ZM110.899 29.95L108.447 28.2211L107.263 29.9012L108.402 31.6124L110.899 29.95ZM122.249 47V50H127.85L124.746 45.3376L122.249 47ZM110.999 47L108.49 48.6446L109.379 50H110.999V47ZM103.199 35.1L105.708 33.4554L104.82 32.1H103.199V35.1ZM96.3492 35.1V32.1H93.3492V35.1H96.3492ZM96.3492 44H86.9492V50H96.3492V44ZM89.9492 47V13.5H83.9492V47H89.9492ZM86.9492 16.5H96.3492V10.5H86.9492V16.5ZM93.3492 13.5V25.95H99.3492V13.5H93.3492ZM96.3492 28.95H103.099V22.95H96.3492V28.95ZM105.609 27.5931L113.759 15.1431L108.739 11.8569L100.589 24.3069L105.609 27.5931ZM111.249 16.5H122.499V10.5H111.249V16.5ZM120.047 11.7711L108.447 28.2211L113.351 31.6789L124.951 15.2289L120.047 11.7711ZM108.402 31.6124L119.752 48.6624L124.746 45.3376L113.396 28.2876L108.402 31.6124ZM122.249 44H110.999V50H122.249V44ZM113.508 45.3554L105.708 33.4554L100.69 36.7446L108.49 48.6446L113.508 45.3554ZM103.199 32.1H96.3492V38.1H103.199V32.1ZM93.3492 35.1V47H99.3492V35.1H93.3492ZM153.271 47V50H156.271V47H153.271ZM123.521 47H120.521V50H123.521V47ZM123.521 13.5V10.5H120.521V13.5H123.521ZM153.271 13.5H156.271V10.5H153.271V13.5ZM153.271 21.95V24.95H156.271V21.95H153.271ZM132.921 21.95V18.95H129.921V21.95H132.921ZM132.921 25.95H129.921V28.95H132.921V25.95ZM152.521 25.95H155.521V22.95H152.521V25.95ZM152.521 34.35V37.35H155.521V34.35H152.521ZM132.921 34.35V31.35H129.921V34.35H132.921ZM132.921 38.55H129.921V41.55H132.921V38.55ZM153.271 38.55H156.271V35.55H153.271V38.55ZM153.271 44H123.521V50H153.271V44ZM126.521 47V13.5H120.521V47H126.521ZM123.521 16.5H153.271V10.5H123.521V16.5ZM150.271 13.5V21.95H156.271V13.5H150.271ZM153.271 18.95H132.921V24.95H153.271V18.95ZM129.921 21.95V25.95H135.921V21.95H129.921ZM132.921 28.95H152.521V22.95H132.921V28.95ZM149.521 25.95V34.35H155.521V25.95H149.521ZM152.521 31.35H132.921V37.35H152.521V31.35ZM129.921 34.35V38.55H135.921V34.35H129.921ZM132.921 41.55H153.271V35.55H132.921V41.55ZM150.271 38.55V47H156.271V38.55H150.271ZM176.443 47V50H179.443V47H176.443ZM167.043 47H164.043V50H167.043V47ZM167.043 21.95H170.043V18.95H167.043V21.95ZM155.193 21.95H152.193V24.95H155.193V21.95ZM155.193 13.5V10.5H152.193V13.5H155.193ZM188.243 13.5H191.243V10.5H188.243V13.5ZM188.243 21.95V24.95H191.243V21.95H188.243ZM176.443 21.95V18.95H173.443V21.95H176.443ZM176.443 44H167.043V50H176.443V44ZM170.043 47V21.95H164.043V47H170.043ZM167.043 18.95H155.193V24.95H167.043V18.95ZM158.193 21.95V13.5H152.193V21.95H158.193ZM155.193 16.5H188.243V10.5H155.193V16.5ZM185.243 13.5V21.95H191.243V13.5H185.243ZM188.243 18.95H176.443V24.95H188.243V18.95ZM173.443 21.95V47H179.443V21.95H173.443ZM190.264 35.05V32.05H187.264V35.05H190.264ZM199.664 35.05H202.664V32.05H199.664V35.05ZM209.664 34.95L209.267 37.9237L209.276 37.9249L209.285 37.926L209.664 34.95ZM199.164 33.55L198.759 36.5226L198.767 36.5237L199.164 33.55ZM221.764 25.45V28.45H224.764V25.45H221.764ZM212.364 25.45H209.364V28.45H212.364V25.45ZM201.564 25.4L202.002 22.4322L201.989 22.4303L201.976 22.4285L201.564 25.4ZM212.064 26.95L211.626 29.9178L211.629 29.9184L212.064 26.95ZM206.764 44.5C201.907 44.5 198.5 43.6198 196.381 42.1485C194.453 40.8094 193.264 38.7569 193.264 35.35H187.264C187.264 40.4431 189.199 44.4656 192.959 47.0765C196.528 49.5552 201.37 50.5 206.764 50.5V44.5ZM193.264 35.35V35.05H187.264V35.35H193.264ZM190.264 38.05H199.664V32.05H190.264V38.05ZM196.664 35.05V36.1H202.664V35.05H196.664ZM196.664 36.1C196.664 36.7606 196.706 37.7691 197.167 38.7604C197.701 39.9067 198.607 40.6624 199.651 41.118C200.58 41.5241 201.645 41.7061 202.712 41.8076C203.816 41.9126 205.159 41.95 206.764 41.95V35.95C205.218 35.95 204.099 35.9124 203.281 35.8346C202.426 35.7533 202.109 35.6447 202.052 35.6195C202.048 35.618 202.148 35.6611 202.28 35.7828C202.422 35.9132 202.534 36.072 202.607 36.2287C202.721 36.4746 202.664 36.5644 202.664 36.1H196.664ZM206.764 41.95C208.214 41.95 209.41 41.9218 210.382 41.8475C211.318 41.7759 212.235 41.6498 213.037 41.371C213.9 41.0708 214.864 40.5082 215.483 39.4311C216.037 38.4656 216.064 37.4879 216.064 37H210.064C210.064 37.2621 210.015 36.9031 210.279 36.4439C210.425 36.1898 210.613 35.9938 210.795 35.86C210.96 35.7384 211.076 35.7004 211.066 35.704C211.005 35.7252 210.703 35.8054 209.924 35.865C209.18 35.9219 208.163 35.95 206.764 35.95V41.95ZM216.064 37C216.064 36.4492 215.993 35.7093 215.634 34.9467C215.254 34.1369 214.662 33.5386 213.993 33.1176C212.863 32.4057 211.393 32.146 210.042 31.974L209.285 37.926C209.913 38.0059 210.332 38.0839 210.61 38.1551C210.9 38.2297 210.909 38.2658 210.796 38.1949C210.729 38.1524 210.621 38.0733 210.504 37.9463C210.384 37.8158 210.281 37.6632 210.204 37.4987C210.053 37.1782 210.064 36.9508 210.064 37H216.064ZM210.06 31.9763L199.56 30.5763L198.767 36.5237L209.267 37.9237L210.06 31.9763ZM199.568 30.5774C196.871 30.2106 195.232 29.3567 194.274 28.3685C193.356 27.4212 192.764 26.0417 192.764 23.95H186.764C186.764 27.2583 187.746 30.2538 189.966 32.544C192.145 34.7933 195.206 36.0394 198.759 36.5226L199.568 30.5774ZM192.764 23.95C192.764 22.0906 193.459 20.244 195.241 18.7985C197.083 17.3046 200.388 16 206.014 16V10C199.539 10 194.72 11.4954 191.461 14.139C188.143 16.831 186.764 20.4594 186.764 23.95H192.764ZM206.014 16C210.961 16 214.125 17.0876 216 18.5985C217.773 20.0271 218.764 22.1317 218.764 25.15H224.764C224.764 20.6683 223.204 16.6979 219.765 13.9265C216.427 11.2374 211.717 10 206.014 10V16ZM218.764 25.15V25.45H224.764V25.15H218.764ZM221.764 22.45H212.364V28.45H221.764V22.45ZM215.364 25.45V24.7H209.364V25.45H215.364ZM215.364 24.7C215.364 23.9367 215.291 22.9067 214.809 21.8953C214.273 20.7735 213.392 19.9919 212.341 19.4914C211.381 19.0345 210.282 18.8101 209.161 18.6819C208.012 18.5506 206.635 18.5 205.014 18.5V24.5C206.542 24.5 207.659 24.5494 208.479 24.6431C209.327 24.7399 209.671 24.8655 209.761 24.9086C209.786 24.9204 209.724 24.8944 209.63 24.8052C209.53 24.7101 209.448 24.5938 209.394 24.4797C209.305 24.2933 209.364 24.2633 209.364 24.7H215.364ZM205.014 18.5C202.638 18.5 200.637 18.6378 199.178 19.2194C198.357 19.5465 197.498 20.0924 196.893 21.0166C196.293 21.9334 196.164 22.8858 196.164 23.6H202.164C202.164 23.5892 202.166 23.9166 201.912 24.3037C201.654 24.6982 201.358 24.8097 201.399 24.7931C201.472 24.7639 201.751 24.6766 202.397 24.6068C203.022 24.5393 203.87 24.5 205.014 24.5V18.5ZM196.164 23.6C196.164 24.7927 196.56 26.1815 197.863 27.1808C198.891 27.9684 200.157 28.2334 201.151 28.3715L201.976 22.4285C201.626 22.3798 201.431 22.3315 201.339 22.3022C201.245 22.2722 201.344 22.289 201.514 22.4192C201.714 22.5727 201.917 22.8114 202.046 23.1152C202.163 23.3891 202.164 23.5858 202.164 23.6H196.164ZM201.126 28.3678L211.626 29.9178L212.502 23.9822L202.002 22.4322L201.126 28.3678ZM211.629 29.9184C215.295 30.4548 217.156 31.5932 218.116 32.6523C219.055 33.6879 219.464 35.0138 219.464 36.65H225.464C225.464 33.9862 224.773 31.0621 222.561 28.6227C220.371 26.2068 217.033 24.6452 212.498 23.9816L211.629 29.9184ZM219.464 36.65C219.464 38.7033 218.711 40.5125 216.986 41.8812C215.183 43.3122 212.007 44.5 206.764 44.5V50.5C212.82 50.5 217.494 49.1378 220.716 46.5813C224.016 43.9625 225.464 40.3467 225.464 36.65H219.464Z" fill="#FFE37E" mask="url(#path-1-outside-1_1_74)"/>
<path d="M251.9 47H242.5V13.5H261.05C269 13.5 274 18.05 274 26C274 33.95 269 38.55 261.05 38.55H251.9V47ZM260 21.95H251.9V30.1H260C263.3 30.1 264.65 29.45 264.65 26C264.65 22.6 263.3 21.95 260 21.95ZM294.046 47.5C282.396 47.5 275.496 40.7 275.496 30.25C275.496 19.8 282.396 13 294.046 13C305.996 13 312.796 19.8 312.796 30.25C312.796 40.7 305.996 47.5 294.046 47.5ZM294.046 38.5C300.846 38.5 302.796 36.9 302.796 30.25C302.796 23.6 300.846 22 294.046 22C287.246 22 285.496 23.6 285.496 30.25C285.496 36.9 287.246 38.5 294.046 38.5ZM333.353 47.5C321.703 47.5 314.803 40.7 314.803 30.25C314.803 19.8 321.703 13 333.353 13C345.303 13 352.103 19.8 352.103 30.25C352.103 40.7 345.303 47.5 333.353 47.5ZM333.353 38.5C340.153 38.5 342.103 36.9 342.103 30.25C342.103 23.6 340.153 22 333.353 22C326.553 22 324.803 23.6 324.803 30.25C324.803 36.9 326.553 38.5 333.353 38.5ZM383.359 47H354.609V13.5H364.009V38.55H383.359V47ZM402.109 47.5C391.859 47.5 385.609 43.85 385.609 35.35V35.05H395.009V36.1C395.009 38.35 395.809 38.95 402.109 38.95C407.809 38.95 408.409 38.5 408.409 37C408.409 35.8 407.759 35.3 405.009 34.95L394.509 33.55C388.259 32.7 385.109 29.35 385.109 23.95C385.109 18.6 389.259 13 401.359 13C412.009 13 417.109 17.65 417.109 25.15V25.45H407.709V24.7C407.709 22.3 406.659 21.5 400.359 21.5C395.559 21.5 394.509 22.15 394.509 23.6C394.509 24.65 395.109 25.15 396.909 25.4L407.409 26.95C415.609 28.15 417.809 32.35 417.809 36.65C417.809 42.4 413.409 47.5 402.109 47.5Z" fill="url(#paint0_linear_1_74)"/>
<defs>
<linearGradient id="paint0_linear_1_74" x1="241" y1="31" x2="419" y2="31" gradientUnits="userSpaceOnUse">
<stop stop-color="white"/>
<stop offset="1" stop-color="#D2D4DD"/>
</linearGradient>
</defs>
</svg>
