<svg width="446" height="62" viewBox="0 0 446 62" fill="none" xmlns="http://www.w3.org/2000/svg">
<mask id="path-1-outside-1_1_79" maskUnits="userSpaceOnUse" x="-1.5" y="10" width="254" height="41" fill="black">
<rect fill="white" x="-1.5" y="10" width="254" height="41"/>
<path d="M18.2 47.5C7.65 47.5 1.5 40.7 1.5 30.25C1.5 19.8 8.7 13 20.9 13C32.25 13 39 18 39 26.3V26.65H28.5V26.3C28.5 23.2 26.6 22 20.65 22C13.45 22 11.5 23.6 11.5 30.25C11.5 36.9 13.35 38.5 20.15 38.5C27.1 38.5 29.1 38.15 29.55 35.6H19.25V28.7H39.05V47H30.3V39.85H29.8C28.9 43.75 26.05 47.5 18.2 47.5ZM71.5938 47H41.8438V13.5H71.5938V21.95H51.2438V25.95H70.8438V34.35H51.2438V38.55H71.5938V47ZM83.6656 47H74.2656V13.5H84.2656L93.5656 26.05L98.4656 33.75H99.1156L98.6656 26.45V13.5H108.066V47H98.0656L88.1656 34.1L83.9156 27.5H83.2656L83.6656 33.9V47ZM140.832 47H111.082V13.5H140.832V21.95H120.482V25.95H140.082V34.35H120.482V38.55H140.832V47ZM152.904 47H143.504V13.5H163.054C171.904 13.5 176.554 17.2 176.554 23.75C176.554 29.05 173.904 32.2 167.504 33V33.5C170.954 34.4 172.054 36.05 173.304 38.6L177.454 47H166.604L162.604 38.8C161.404 36.3 160.404 35.6 156.754 35.6H152.904V47ZM152.904 21.95V28.6H162.954C165.704 28.6 166.704 28.1 166.704 25.25C166.704 22.6 165.704 21.95 162.954 21.95H152.904ZM187.503 47H176.953L191.403 13.5H204.853L219.353 47H208.553L206.003 40.8H190.103L187.503 47ZM195.603 27.65L193.653 32.35H202.553L200.603 27.65L198.403 22H197.753L195.603 27.65ZM249.109 47H220.359V13.5H229.759V38.55H249.109V47Z"/>
</mask>
<path d="M39 26.65V29.65H42V26.65H39ZM28.5 26.65H25.5V29.65H28.5V26.65ZM29.55 35.6L32.5044 36.1214L33.1258 32.6H29.55V35.6ZM19.25 35.6H16.25V38.6H19.25V35.6ZM19.25 28.7V25.7H16.25V28.7H19.25ZM39.05 28.7H42.05V25.7H39.05V28.7ZM39.05 47V50H42.05V47H39.05ZM30.3 47H27.3V50H30.3V47ZM30.3 39.85H33.3V36.85H30.3V39.85ZM29.8 39.85V36.85H27.4135L26.8768 39.1754L29.8 39.85ZM18.2 44.5C13.5899 44.5 10.2585 43.0323 8.06864 40.7274C5.85899 38.4017 4.5 34.8942 4.5 30.25H-1.5C-1.5 36.0558 0.216011 41.1733 3.71886 44.8601C7.24148 48.5677 12.2601 50.5 18.2 50.5V44.5ZM4.5 30.25C4.5 25.7465 6.02921 22.2893 8.63697 19.9316C11.2777 17.544 15.3426 16 20.9 16V10C14.2574 10 8.6223 11.856 4.61303 15.4809C0.570792 19.1357 -1.5 24.3035 -1.5 30.25H4.5ZM20.9 16C26.1861 16 30.0075 17.1711 32.4273 18.9532C34.7364 20.6536 36 23.0665 36 26.3H42C42 21.2335 39.8886 16.9964 35.9852 14.1218C32.1925 11.3289 26.9639 10 20.9 10V16ZM36 26.3V26.65H42V26.3H36ZM39 23.65H28.5V29.65H39V23.65ZM31.5 26.65V26.3H25.5V26.65H31.5ZM31.5 26.3C31.5 25.2371 31.3399 24.0841 30.7995 22.9909C30.2359 21.8506 29.3619 20.9847 28.2802 20.3746C26.3216 19.2697 23.6526 19 20.65 19V25C23.5974 25 24.8534 25.3303 25.3323 25.6004C25.4161 25.6477 25.4403 25.6748 25.436 25.6704C25.4347 25.6691 25.4309 25.6648 25.4264 25.6584C25.4219 25.6521 25.4201 25.6484 25.4208 25.6497C25.4226 25.6534 25.5 25.8129 25.5 26.3H31.5ZM20.65 19C17.1034 19 13.7106 19.3226 11.3838 21.3873C8.93197 23.5631 8.5 26.8717 8.5 30.25H14.5C14.5 26.9783 15.043 26.1619 15.3662 25.8751C15.8144 25.4774 16.9966 25 20.65 25V19ZM8.5 30.25C8.5 33.602 8.89984 36.8779 11.2225 39.0567C13.4816 41.176 16.7858 41.5 20.15 41.5V35.5C16.7142 35.5 15.6934 35.024 15.3275 34.6808C15.0252 34.3971 14.5 33.548 14.5 30.25H8.5ZM20.15 41.5C23.5072 41.5 26.2012 41.4355 28.11 40.8913C29.1551 40.5933 30.2253 40.0872 31.0786 39.1579C31.9419 38.2176 32.3276 37.1229 32.5044 36.1214L26.5957 35.0786C26.5474 35.3521 26.5143 35.2574 26.6589 35.0999C26.7935 34.9534 26.8449 35.0129 26.465 35.1212C25.5238 35.3895 23.7428 35.5 20.15 35.5V41.5ZM29.55 32.6H19.25V38.6H29.55V32.6ZM22.25 35.6V28.7H16.25V35.6H22.25ZM19.25 31.7H39.05V25.7H19.25V31.7ZM36.05 28.7V47H42.05V28.7H36.05ZM39.05 44H30.3V50H39.05V44ZM33.3 47V39.85H27.3V47H33.3ZM30.3 36.85H29.8V42.85H30.3V36.85ZM26.8768 39.1754C26.5359 40.653 25.8815 41.888 24.7481 42.7822C23.6097 43.6804 21.6514 44.5 18.2 44.5V50.5C22.5986 50.5 25.9903 49.4446 28.4644 47.4928C30.9435 45.537 32.1641 42.947 32.7232 40.5246L26.8768 39.1754ZM71.5938 47V50H74.5938V47H71.5938ZM41.8438 47H38.8438V50H41.8438V47ZM41.8438 13.5V10.5H38.8438V13.5H41.8438ZM71.5938 13.5H74.5938V10.5H71.5938V13.5ZM71.5938 21.95V24.95H74.5938V21.95H71.5938ZM51.2438 21.95V18.95H48.2438V21.95H51.2438ZM51.2438 25.95H48.2438V28.95H51.2438V25.95ZM70.8438 25.95H73.8438V22.95H70.8438V25.95ZM70.8438 34.35V37.35H73.8438V34.35H70.8438ZM51.2438 34.35V31.35H48.2438V34.35H51.2438ZM51.2438 38.55H48.2438V41.55H51.2438V38.55ZM71.5938 38.55H74.5938V35.55H71.5938V38.55ZM71.5938 44H41.8438V50H71.5938V44ZM44.8438 47V13.5H38.8438V47H44.8438ZM41.8438 16.5H71.5938V10.5H41.8438V16.5ZM68.5938 13.5V21.95H74.5938V13.5H68.5938ZM71.5938 18.95H51.2438V24.95H71.5938V18.95ZM48.2438 21.95V25.95H54.2438V21.95H48.2438ZM51.2438 28.95H70.8438V22.95H51.2438V28.95ZM67.8438 25.95V34.35H73.8438V25.95H67.8438ZM70.8438 31.35H51.2438V37.35H70.8438V31.35ZM48.2438 34.35V38.55H54.2438V34.35H48.2438ZM51.2438 41.55H71.5938V35.55H51.2438V41.55ZM68.5938 38.55V47H74.5938V38.55H68.5938ZM83.6656 47V50H86.6656V47H83.6656ZM74.2656 47H71.2656V50H74.2656V47ZM74.2656 13.5V10.5H71.2656V13.5H74.2656ZM84.2656 13.5L86.676 11.7139L85.7764 10.5H84.2656V13.5ZM93.5656 26.05L96.0966 24.4394L96.0394 24.3495L95.976 24.2639L93.5656 26.05ZM98.4656 33.75L95.9346 35.3606L96.8188 36.75H98.4656V33.75ZM99.1156 33.75V36.75H102.306L102.11 33.5654L99.1156 33.75ZM98.6656 26.45H95.6656V26.5424L95.6713 26.6346L98.6656 26.45ZM98.6656 13.5V10.5H95.6656V13.5H98.6656ZM108.066 13.5H111.066V10.5H108.066V13.5ZM108.066 47V50H111.066V47H108.066ZM98.0656 47L95.6857 48.8265L96.5863 50H98.0656V47ZM88.1656 34.1L85.6433 35.7242L85.7103 35.8283L85.7857 35.9265L88.1656 34.1ZM83.9156 27.5L86.4379 25.8758L85.552 24.5H83.9156V27.5ZM83.2656 27.5V24.5H80.0723L80.2715 27.6871L83.2656 27.5ZM83.6656 33.9H86.6656V33.8063L86.6598 33.7129L83.6656 33.9ZM83.6656 44H74.2656V50H83.6656V44ZM77.2656 47V13.5H71.2656V47H77.2656ZM74.2656 16.5H84.2656V10.5H74.2656V16.5ZM81.8553 15.2861L91.1553 27.8361L95.976 24.2639L86.676 11.7139L81.8553 15.2861ZM91.0346 27.6606L95.9346 35.3606L100.997 32.1394L96.0966 24.4394L91.0346 27.6606ZM98.4656 36.75H99.1156V30.75H98.4656V36.75ZM102.11 33.5654L101.66 26.2654L95.6713 26.6346L96.1213 33.9346L102.11 33.5654ZM101.666 26.45V13.5H95.6656V26.45H101.666ZM98.6656 16.5H108.066V10.5H98.6656V16.5ZM105.066 13.5V47H111.066V13.5H105.066ZM108.066 44H98.0656V50H108.066V44ZM100.446 45.1735L90.5456 32.2735L85.7857 35.9265L95.6857 48.8265L100.446 45.1735ZM90.6879 32.4758L86.4379 25.8758L81.3933 29.1242L85.6433 35.7242L90.6879 32.4758ZM83.9156 24.5H83.2656V30.5H83.9156V24.5ZM80.2715 27.6871L80.6715 34.0871L86.6598 33.7129L86.2598 27.3129L80.2715 27.6871ZM80.6656 33.9V47H86.6656V33.9H80.6656ZM140.832 47V50H143.832V47H140.832ZM111.082 47H108.082V50H111.082V47ZM111.082 13.5V10.5H108.082V13.5H111.082ZM140.832 13.5H143.832V10.5H140.832V13.5ZM140.832 21.95V24.95H143.832V21.95H140.832ZM120.482 21.95V18.95H117.482V21.95H120.482ZM120.482 25.95H117.482V28.95H120.482V25.95ZM140.082 25.95H143.082V22.95H140.082V25.95ZM140.082 34.35V37.35H143.082V34.35H140.082ZM120.482 34.35V31.35H117.482V34.35H120.482ZM120.482 38.55H117.482V41.55H120.482V38.55ZM140.832 38.55H143.832V35.55H140.832V38.55ZM140.832 44H111.082V50H140.832V44ZM114.082 47V13.5H108.082V47H114.082ZM111.082 16.5H140.832V10.5H111.082V16.5ZM137.832 13.5V21.95H143.832V13.5H137.832ZM140.832 18.95H120.482V24.95H140.832V18.95ZM117.482 21.95V25.95H123.482V21.95H117.482ZM120.482 28.95H140.082V22.95H120.482V28.95ZM137.082 25.95V34.35H143.082V25.95H137.082ZM140.082 31.35H120.482V37.35H140.082V31.35ZM117.482 34.35V38.55H123.482V34.35H117.482ZM120.482 41.55H140.832V35.55H120.482V41.55ZM137.832 38.55V47H143.832V38.55H137.832ZM152.904 47V50H155.904V47H152.904ZM143.504 47H140.504V50H143.504V47ZM143.504 13.5V10.5H140.504V13.5H143.504ZM167.504 33L167.132 30.0232L164.504 30.3517V33H167.504ZM167.504 33.5H164.504V35.8178L166.747 36.4029L167.504 33.5ZM173.304 38.6L170.61 39.9205L170.614 39.9288L173.304 38.6ZM177.454 47V50H182.282L180.144 45.6712L177.454 47ZM166.604 47L163.908 48.3153L164.729 50H166.604V47ZM162.604 38.8L159.899 40.0982L159.903 40.1067L159.908 40.1153L162.604 38.8ZM152.904 35.6V32.6H149.904V35.6H152.904ZM152.904 21.95V18.95H149.904V21.95H152.904ZM152.904 28.6H149.904V31.6H152.904V28.6ZM152.904 44H143.504V50H152.904V44ZM146.504 47V13.5H140.504V47H146.504ZM143.504 16.5H163.054V10.5H143.504V16.5ZM163.054 16.5C167.126 16.5 169.751 17.3608 171.294 18.5474C172.713 19.6378 173.554 21.2571 173.554 23.75H179.554C179.554 19.6929 178.07 16.1872 174.951 13.7901C171.957 11.4892 167.832 10.5 163.054 10.5V16.5ZM173.554 23.75C173.554 25.9054 173.024 27.1804 172.247 28.0037C171.437 28.8624 169.942 29.6719 167.132 30.0232L167.876 35.9768C171.466 35.5281 174.496 34.3626 176.611 32.1213C178.759 29.8446 179.554 26.8946 179.554 23.75H173.554ZM164.504 33V33.5H170.504V33H164.504ZM166.747 36.4029C168.088 36.7527 168.722 37.1759 169.131 37.5758C169.6 38.0346 170.002 38.6801 170.61 39.9205L175.998 37.2795C175.356 35.9699 174.583 34.5154 173.327 33.2867C172.011 31.9991 170.37 31.1473 168.261 30.5971L166.747 36.4029ZM170.614 39.9288L174.764 48.3288L180.144 45.6712L175.994 37.2712L170.614 39.9288ZM177.454 44H166.604V50H177.454V44ZM169.3 45.6847L165.3 37.4847L159.908 40.1153L163.908 48.3153L169.3 45.6847ZM165.308 37.5018C164.647 36.1231 163.766 34.6142 162.082 33.6554C160.498 32.7537 158.647 32.6 156.754 32.6V38.6C158.51 38.6 158.985 38.7963 159.113 38.8696C159.142 38.8858 159.361 38.9769 159.899 40.0982L165.308 37.5018ZM156.754 32.6H152.904V38.6H156.754V32.6ZM149.904 35.6V47H155.904V35.6H149.904ZM149.904 21.95V28.6H155.904V21.95H149.904ZM152.904 31.6H162.954V25.6H152.904V31.6ZM162.954 31.6C164.233 31.6 166.228 31.5572 167.749 30.3243C169.475 28.9252 169.704 26.8222 169.704 25.25H163.704C163.704 25.5223 163.692 25.7245 163.675 25.8718C163.658 26.0196 163.639 26.0876 163.636 26.0995C163.633 26.1081 163.65 26.0485 163.71 25.9546C163.773 25.8553 163.861 25.752 163.971 25.6632C164.188 25.4873 164.327 25.4945 164.139 25.5302C163.937 25.5686 163.582 25.6 162.954 25.6V31.6ZM169.704 25.25C169.704 23.7032 169.444 21.6849 167.778 20.2996C166.284 19.0569 164.339 18.95 162.954 18.95V24.95C163.549 24.95 163.89 24.9877 164.075 25.0271C164.245 25.0634 164.13 25.0696 163.942 24.9129C163.848 24.8348 163.77 24.7442 163.714 24.6557C163.66 24.5713 163.643 24.5163 163.644 24.5186C163.653 24.5473 163.704 24.7469 163.704 25.25H169.704ZM162.954 18.95H152.904V24.95H162.954V18.95ZM187.503 47V50H189.498L190.27 48.1602L187.503 47ZM176.953 47L174.198 45.8118L172.392 50H176.953V47ZM191.403 13.5V10.5H189.43L188.648 12.3118L191.403 13.5ZM204.853 13.5L207.606 12.3083L206.824 10.5H204.853V13.5ZM219.353 47V50H223.921L222.106 45.8083L219.353 47ZM208.553 47L205.779 48.1411L206.543 50H208.553V47ZM206.003 40.8L208.778 39.6589L208.013 37.8H206.003V40.8ZM190.103 40.8V37.8H188.108L187.337 39.6398L190.103 40.8ZM195.603 27.65L198.374 28.7997L198.391 28.7585L198.407 28.717L195.603 27.65ZM193.653 32.35L190.882 31.2003L189.16 35.35H193.653V32.35ZM202.553 32.35V35.35H207.046L205.324 31.2003L202.553 32.35ZM200.603 27.65L197.808 28.7385L197.82 28.7692L197.832 28.7997L200.603 27.65ZM198.403 22L201.199 20.9115L200.454 19H198.403V22ZM197.753 22V19H195.685L194.949 20.933L197.753 22ZM187.503 44H176.953V50H187.503V44ZM179.708 48.1882L194.158 14.6882L188.648 12.3118L174.198 45.8118L179.708 48.1882ZM191.403 16.5H204.853V10.5H191.403V16.5ZM202.1 14.6917L216.6 48.1917L222.106 45.8083L207.606 12.3083L202.1 14.6917ZM219.353 44H208.553V50H219.353V44ZM211.328 45.8589L208.778 39.6589L203.229 41.9411L205.779 48.1411L211.328 45.8589ZM206.003 37.8H190.103V43.8H206.003V37.8ZM187.337 39.6398L184.737 45.8398L190.27 48.1602L192.87 41.9602L187.337 39.6398ZM192.832 26.5003L190.882 31.2003L196.424 33.4997L198.374 28.7997L192.832 26.5003ZM193.653 35.35H202.553V29.35H193.653V35.35ZM205.324 31.2003L203.374 26.5003L197.832 28.7997L199.782 33.4997L205.324 31.2003ZM203.399 26.5615L201.199 20.9115L195.608 23.0885L197.808 28.7385L203.399 26.5615ZM198.403 19H197.753V25H198.403V19ZM194.949 20.933L192.799 26.583L198.407 28.717L200.557 23.067L194.949 20.933ZM249.109 47V50H252.109V47H249.109ZM220.359 47H217.359V50H220.359V47ZM220.359 13.5V10.5H217.359V13.5H220.359ZM229.759 13.5H232.759V10.5H229.759V13.5ZM229.759 38.55H226.759V41.55H229.759V38.55ZM249.109 38.55H252.109V35.55H249.109V38.55ZM249.109 44H220.359V50H249.109V44ZM223.359 47V13.5H217.359V47H223.359ZM220.359 16.5H229.759V10.5H220.359V16.5ZM226.759 13.5V38.55H232.759V13.5H226.759ZM229.759 41.55H249.109V35.55H229.759V41.55ZM246.109 38.55V47H252.109V38.55H246.109Z" fill="#FBCB68" mask="url(#path-1-outside-1_1_79)"/>
<path d="M278.4 47H269V13.5H287.55C295.5 13.5 300.5 18.05 300.5 26C300.5 33.95 295.5 38.55 287.55 38.55H278.4V47ZM286.5 21.95H278.4V30.1H286.5C289.8 30.1 291.15 29.45 291.15 26C291.15 22.6 289.8 21.95 286.5 21.95ZM320.546 47.5C308.896 47.5 301.996 40.7 301.996 30.25C301.996 19.8 308.896 13 320.546 13C332.496 13 339.296 19.8 339.296 30.25C339.296 40.7 332.496 47.5 320.546 47.5ZM320.546 38.5C327.346 38.5 329.296 36.9 329.296 30.25C329.296 23.6 327.346 22 320.546 22C313.746 22 311.996 23.6 311.996 30.25C311.996 36.9 313.746 38.5 320.546 38.5ZM359.853 47.5C348.203 47.5 341.303 40.7 341.303 30.25C341.303 19.8 348.203 13 359.853 13C371.803 13 378.603 19.8 378.603 30.25C378.603 40.7 371.803 47.5 359.853 47.5ZM359.853 38.5C366.653 38.5 368.603 36.9 368.603 30.25C368.603 23.6 366.653 22 359.853 22C353.053 22 351.303 23.6 351.303 30.25C351.303 36.9 353.053 38.5 359.853 38.5ZM409.859 47H381.109V13.5H390.509V38.55H409.859V47ZM428.609 47.5C418.359 47.5 412.109 43.85 412.109 35.35V35.05H421.509V36.1C421.509 38.35 422.309 38.95 428.609 38.95C434.309 38.95 434.909 38.5 434.909 37C434.909 35.8 434.259 35.3 431.509 34.95L421.009 33.55C414.759 32.7 411.609 29.35 411.609 23.95C411.609 18.6 415.759 13 427.859 13C438.509 13 443.609 17.65 443.609 25.15V25.45H434.209V24.7C434.209 22.3 433.159 21.5 426.859 21.5C422.059 21.5 421.009 22.15 421.009 23.6C421.009 24.65 421.609 25.15 423.409 25.4L433.909 26.95C442.109 28.15 444.309 32.35 444.309 36.65C444.309 42.4 439.909 47.5 428.609 47.5Z" fill="url(#paint0_linear_1_79)"/>
<defs>
<linearGradient id="paint0_linear_1_79" x1="267.5" y1="31" x2="445.5" y2="31" gradientUnits="userSpaceOnUse">
<stop stop-color="white"/>
<stop offset="1" stop-color="#D2D4DD"/>
</linearGradient>
</defs>
</svg>
