<svg width="45" height="45" viewBox="0 0 45 45" fill="none" xmlns="http://www.w3.org/2000/svg">
<g clip-path="url(#clip0_135_1263)">
<path d="M44.5556 22.2778C44.5556 9.97421 34.5814 0 22.2778 0C9.97421 0 0 9.97421 0 22.2778C0 32.7252 7.19305 41.4919 16.8964 43.8997V29.0859H12.3027V22.2778H16.8964V19.3443C16.8964 11.7618 20.328 8.24724 27.7724 8.24724C29.1839 8.24724 31.6193 8.52438 32.6156 8.80062V14.9716C32.0898 14.9163 31.1764 14.8887 30.0421 14.8887C26.3894 14.8887 24.9779 16.2726 24.9779 19.87V22.2778H32.2547L31.0045 29.0859H24.9779V44.3925C36.0089 43.0603 44.5565 33.668 44.5565 22.2778H44.5556Z" fill="#0866FF"/>
<path d="M31.0035 29.0859L32.2537 22.2778H24.9769V19.87C24.9769 16.2726 26.3885 14.8887 30.0411 14.8887C31.1755 14.8887 32.0889 14.9163 32.6146 14.9716V8.80062C31.6184 8.52348 29.183 8.24724 27.7715 8.24724C20.3271 8.24724 16.8954 11.7618 16.8954 19.3443V22.2778H12.3018V29.0859H16.8954V43.8997C18.6188 44.3275 20.4216 44.5556 22.2769 44.5556C23.1903 44.5556 24.0912 44.4994 24.976 44.3925V29.0859H31.0026H31.0035Z" fill="white"/>
</g>
<defs>
<clipPath id="clip0_135_1263">
<rect width="44.5556" height="44.5556" fill="white"/>
</clipPath>
</defs>
</svg>
