<svg width="46" height="45" viewBox="0 0 46 45" fill="none" xmlns="http://www.w3.org/2000/svg">
<g clip-path="url(#clip0_135_1261)">
<path d="M22.9077 4.01174C28.86 4.01174 29.5649 4.03785 31.9058 4.14228C34.0814 4.238 35.2562 4.6035 36.0394 4.90808C37.075 5.30838 37.8234 5.79571 38.5979 6.57021C39.3811 7.35341 39.8597 8.09311 40.26 9.12867C40.5646 9.91188 40.9301 11.0954 41.0258 13.2622C41.1302 15.6119 41.1563 16.3167 41.1563 22.2604C41.1563 28.2127 41.1302 28.9176 41.0258 31.2585C40.9301 33.4341 40.5646 34.6089 40.26 35.3921C39.8597 36.4277 39.3724 37.1761 38.5979 37.9506C37.8147 38.7338 37.075 39.2124 36.0394 39.6127C35.2562 39.9173 34.0727 40.2828 31.9058 40.3785C29.5562 40.4829 28.8513 40.509 22.9077 40.509C16.9553 40.509 16.2504 40.4829 13.9095 40.3785C11.734 40.2828 10.5592 39.9173 9.77596 39.6127C8.74039 39.2124 7.992 38.7251 7.2175 37.9506C6.43429 37.1674 5.95567 36.4277 5.55536 35.3921C5.25078 34.6089 4.88529 33.4254 4.78957 31.2585C4.68514 28.9089 4.65903 28.204 4.65903 22.2604C4.65903 16.308 4.68514 15.6032 4.78957 13.2622C4.88529 11.0867 5.25078 9.91188 5.55536 9.12867C5.95567 8.09311 6.443 7.34471 7.2175 6.57021C8.0007 5.787 8.74039 5.30838 9.77596 4.90808C10.5592 4.6035 11.7427 4.238 13.9095 4.14228C16.2504 4.03785 16.9553 4.01174 22.9077 4.01174ZM22.9077 0C16.8596 0 16.1025 0.0261068 13.7268 0.130534C11.3598 0.234961 9.73245 0.617861 8.32268 1.1661C6.852 1.74045 5.60758 2.49755 4.37186 3.74197C3.12743 4.97769 2.37034 6.22212 1.79599 7.6841C1.24774 9.10257 0.864844 10.7212 0.760417 13.0882C0.65599 15.4726 0.629883 16.2297 0.629883 22.2778C0.629883 28.3259 0.65599 29.083 0.760417 31.4587C0.864844 33.8257 1.24774 35.453 1.79599 36.8628C2.37034 38.3335 3.12743 39.5779 4.37186 40.8136C5.60758 42.0493 6.852 42.8151 8.31398 43.3808C9.73245 43.929 11.3511 44.3119 13.7181 44.4163C16.0938 44.5208 16.8509 44.5469 22.899 44.5469C28.947 44.5469 29.7041 44.5208 32.0799 44.4163C34.4469 44.3119 36.0742 43.929 37.484 43.3808C38.946 42.8151 40.1904 42.0493 41.4261 40.8136C42.6618 39.5779 43.4276 38.3335 43.9933 36.8715C44.5415 35.453 44.9244 33.8344 45.0288 31.4674C45.1333 29.0917 45.1594 28.3346 45.1594 22.2865C45.1594 16.2384 45.1333 15.4813 45.0288 13.1056C44.9244 10.7386 44.5415 9.11127 43.9933 7.7015C43.445 6.22212 42.6879 4.97769 41.4435 3.74197C40.2078 2.50625 38.9634 1.74045 37.5014 1.17481C36.0829 0.626563 34.4643 0.243663 32.0973 0.139236C29.7128 0.0261068 28.9558 0 22.9077 0Z" fill="url(#paint0_linear_135_1261)"/>
<path d="M22.9073 10.8343C16.5895 10.8343 11.4639 15.96 11.4639 22.2778C11.4639 28.5956 16.5895 33.7213 22.9073 33.7213C29.2252 33.7213 34.3508 28.5956 34.3508 22.2778C34.3508 15.96 29.2252 10.8343 22.9073 10.8343ZM22.9073 29.7008C18.8086 29.7008 15.4843 26.3766 15.4843 22.2778C15.4843 18.179 18.8086 14.8548 22.9073 14.8548C27.0061 14.8548 30.3304 18.179 30.3304 22.2778C30.3304 26.3766 27.0061 29.7008 22.9073 29.7008Z" fill="url(#paint1_linear_135_1261)"/>
<path d="M37.475 10.3818C37.475 11.8612 36.2741 13.0534 34.8034 13.0534C33.324 13.0534 32.1318 11.8525 32.1318 10.3818C32.1318 8.90244 33.3327 7.71023 34.8034 7.71023C36.2741 7.71023 37.475 8.91115 37.475 10.3818Z" fill="url(#paint2_linear_135_1261)"/>
</g>
<defs>
<linearGradient id="paint0_linear_135_1261" x1="22.8946" y1="0" x2="22.8946" y2="44.5469" gradientUnits="userSpaceOnUse">
<stop stop-color="#5F1B6A"/>
<stop offset="1" stop-color="#676300"/>
</linearGradient>
<linearGradient id="paint1_linear_135_1261" x1="22.9073" y1="10.8343" x2="22.9073" y2="33.7213" gradientUnits="userSpaceOnUse">
<stop stop-color="#5F1B6A"/>
<stop offset="1" stop-color="#676300"/>
</linearGradient>
<linearGradient id="paint2_linear_135_1261" x1="34.8034" y1="7.71023" x2="34.8034" y2="13.0534" gradientUnits="userSpaceOnUse">
<stop stop-color="#5F1B6A"/>
<stop offset="1" stop-color="#676300"/>
</linearGradient>
<clipPath id="clip0_135_1261">
<rect width="44.5556" height="44.5556" fill="white" transform="translate(0.629883)"/>
</clipPath>
</defs>
</svg>
