<svg width="45" height="45" viewBox="0 0 45 45" fill="none" xmlns="http://www.w3.org/2000/svg">
<g clip-path="url(#clip0_135_1260)">
<path d="M41.7109 0H3.73341C2.86109 0 2.0245 0.346526 1.40768 0.963346C0.790862 1.58017 0.444336 2.41675 0.444336 3.28907V41.2665C0.444336 42.1388 0.790862 42.9754 1.40768 43.5922C2.0245 44.2091 2.86109 44.5556 3.73341 44.5556H41.7109C42.5832 44.5556 43.4198 44.2091 44.0366 43.5922C44.6534 42.9754 44.9999 42.1388 44.9999 41.2665V3.28907C44.9999 2.41675 44.6534 1.58017 44.0366 0.963346C43.4198 0.346526 42.5832 0 41.7109 0ZM13.7244 37.9558H7.02557V16.6774H13.7244V37.9558ZM10.3703 13.7287C9.61047 13.7244 8.8689 13.4951 8.23921 13.0698C7.60953 12.6445 7.11995 12.0421 6.83227 11.3388C6.54458 10.6355 6.47168 9.86274 6.62277 9.11803C6.77386 8.37333 7.14216 7.69007 7.68119 7.15448C8.22023 6.61889 8.90584 6.25499 9.6515 6.10868C10.3972 5.96238 11.1694 6.04024 11.8709 6.33244C12.5724 6.62463 13.1715 7.11807 13.5928 7.75047C14.0141 8.38287 14.2386 9.1259 14.238 9.88577C14.2452 10.3945 14.1498 10.8995 13.9577 11.3706C13.7656 11.8417 13.4805 12.2693 13.1196 12.6279C12.7587 12.9865 12.3293 13.2688 11.8569 13.4579C11.3846 13.647 10.879 13.7391 10.3703 13.7287ZM38.4156 37.9744H31.7199V26.3497C31.7199 22.9214 30.2625 21.8632 28.3813 21.8632C26.3949 21.8632 24.4456 23.3607 24.4456 26.4363V37.9744H17.7468V16.6929H24.1888V19.6416H24.2754C24.9221 18.3328 27.187 16.0957 30.6431 16.0957C34.3808 16.0957 38.4187 18.3142 38.4187 24.8119L38.4156 37.9744Z" fill="#0A66C2"/>
</g>
<defs>
<clipPath id="clip0_135_1260">
<rect width="44.5556" height="44.5556" fill="white" transform="translate(0.444336)"/>
</clipPath>
</defs>
</svg>
