<svg width="33" height="32" viewBox="0 0 33 32" fill="none" xmlns="http://www.w3.org/2000/svg">
<g clip-path="url(#clip0_1_313)">
<path d="M16.5 20C18.7091 20 20.5 18.2091 20.5 16C20.5 13.7909 18.7091 12 16.5 12C14.2909 12 12.5 13.7909 12.5 16C12.5 18.2091 14.2909 20 16.5 20Z" stroke="white" stroke-width="3" stroke-linecap="round" stroke-linejoin="round"/>
<path d="M26.3667 19.9999C26.1892 20.4021 26.1363 20.8482 26.2147 21.2807C26.2931 21.7132 26.4993 22.1123 26.8067 22.4266L26.8867 22.5066C27.1346 22.7542 27.3313 23.0483 27.4655 23.3721C27.5997 23.6958 27.6688 24.0428 27.6688 24.3933C27.6688 24.7437 27.5997 25.0907 27.4655 25.4144C27.3313 25.7382 27.1346 26.0323 26.8867 26.2799C26.639 26.5279 26.3449 26.7245 26.0212 26.8587C25.6975 26.9929 25.3505 27.062 25 27.062C24.6496 27.062 24.3026 26.9929 23.9789 26.8587C23.6551 26.7245 23.361 26.5279 23.1134 26.2799L23.0334 26.1999C22.7191 25.8925 22.32 25.6863 21.8875 25.6079C21.455 25.5295 21.0089 25.5824 20.6067 25.7599C20.2123 25.9289 19.876 26.2096 19.6391 26.5673C19.4022 26.925 19.2751 27.3442 19.2734 27.7733V27.9999C19.2734 28.7072 18.9924 29.3854 18.4923 29.8855C17.9922 30.3856 17.314 30.6666 16.6067 30.6666C15.8995 30.6666 15.2212 30.3856 14.7211 29.8855C14.221 29.3854 13.94 28.7072 13.94 27.9999V27.8799C13.9297 27.4386 13.7869 27.0106 13.5301 26.6515C13.2732 26.2925 12.9144 26.019 12.5 25.8666C12.0979 25.6891 11.6518 25.6362 11.2193 25.7146C10.7867 25.793 10.3876 25.9992 10.0734 26.3066L9.99337 26.3866C9.74571 26.6345 9.45161 26.8312 9.12788 26.9654C8.80415 27.0996 8.45715 27.1687 8.10671 27.1687C7.75627 27.1687 7.40926 27.0996 7.08553 26.9654C6.7618 26.8312 6.4677 26.6345 6.22004 26.3866C5.9721 26.1389 5.77541 25.8448 5.64121 25.5211C5.50702 25.1974 5.43794 24.8504 5.43794 24.4999C5.43794 24.1495 5.50702 23.8025 5.64121 23.4787C5.77541 23.155 5.9721 22.8609 6.22004 22.6132L6.30004 22.5333C6.60742 22.219 6.81362 21.8199 6.89205 21.3874C6.97047 20.9548 6.91753 20.5087 6.74004 20.1066C6.57102 19.7122 6.29038 19.3759 5.93266 19.139C5.57494 18.9021 5.15576 18.775 4.72671 18.7733H4.50004C3.7928 18.7733 3.11452 18.4923 2.61442 17.9922C2.11433 17.4921 1.83337 16.8138 1.83337 16.1066C1.83337 15.3993 2.11433 14.7211 2.61442 14.221C3.11452 13.7209 3.7928 13.4399 4.50004 13.4399H4.62004C5.06137 13.4296 5.48938 13.2867 5.84844 13.0299C6.2075 12.7731 6.48099 12.4142 6.63337 11.9999C6.81086 11.5978 6.8638 11.1517 6.78538 10.7191C6.70695 10.2866 6.50076 9.88749 6.19337 9.57325L6.11337 9.49325C5.86544 9.24559 5.66875 8.95149 5.53455 8.62776C5.40035 8.30403 5.33128 7.95703 5.33128 7.60658C5.33128 7.25614 5.40035 6.90914 5.53455 6.58541C5.66875 6.26168 5.86544 5.96758 6.11337 5.71992C6.36104 5.47198 6.65514 5.27529 6.97887 5.14109C7.30259 5.00689 7.6496 4.93782 8.00004 4.93782C8.35048 4.93782 8.69749 5.00689 9.02121 5.14109C9.34494 5.27529 9.63905 5.47198 9.88671 5.71992L9.96671 5.79992C10.2809 6.1073 10.6801 6.3135 11.1126 6.39192C11.5451 6.47035 11.9912 6.41741 12.3934 6.23992H12.5C12.8944 6.0709 13.2307 5.79026 13.4676 5.43254C13.7045 5.07482 13.8317 4.65563 13.8334 4.22659V3.99992C13.8334 3.29267 14.1143 2.6144 14.6144 2.1143C15.1145 1.6142 15.7928 1.33325 16.5 1.33325C17.2073 1.33325 17.8856 1.6142 18.3857 2.1143C18.8858 2.6144 19.1667 3.29267 19.1667 3.99992V4.11992C19.1684 4.54897 19.2955 4.96815 19.5324 5.32587C19.7694 5.68359 20.1057 5.96423 20.5 6.13325C20.9022 6.31074 21.3483 6.36368 21.7808 6.28526C22.2134 6.20683 22.6125 6.00063 22.9267 5.69325L23.0067 5.61325C23.2544 5.36531 23.5485 5.16862 23.8722 5.03443C24.1959 4.90023 24.5429 4.83115 24.8934 4.83115C25.2438 4.83115 25.5908 4.90023 25.9145 5.03443C26.2383 5.16862 26.5324 5.36531 26.78 5.61325C27.028 5.86091 27.2247 6.15502 27.3589 6.47874C27.4931 6.80247 27.5621 7.14948 27.5621 7.49992C27.5621 7.85036 27.4931 8.19736 27.3589 8.52109C27.2247 8.84482 27.028 9.13892 26.78 9.38658L26.7 9.46658C26.3927 9.78082 26.1865 10.1799 26.108 10.6125C26.0296 11.045 26.0826 11.4911 26.26 11.8933V11.9999C26.4291 12.3943 26.7097 12.7306 27.0674 12.9675C27.4251 13.2044 27.8443 13.3315 28.2734 13.3333H28.5C29.2073 13.3333 29.8856 13.6142 30.3857 14.1143C30.8858 14.6144 31.1667 15.2927 31.1667 15.9999C31.1667 16.7072 30.8858 17.3854 30.3857 17.8855C29.8856 18.3856 29.2073 18.6666 28.5 18.6666H28.38C27.951 18.6683 27.5318 18.7954 27.1741 19.0323C26.8164 19.2692 26.5357 19.6056 26.3667 19.9999V19.9999Z" stroke="white" stroke-width="3" stroke-linecap="round" stroke-linejoin="round"/>
</g>
<defs>
<clipPath id="clip0_1_313">
<rect width="32" height="32" fill="white" transform="translate(0.5)"/>
</clipPath>
</defs>
</svg>
