<svg width="223" height="35" viewBox="0 0 223 35" fill="none" xmlns="http://www.w3.org/2000/svg">
<mask id="path-1-outside-1_1_75" maskUnits="userSpaceOnUse" x="-3" y="-3" width="229" height="41" fill="black">
<rect fill="white" x="-3" y="-3" width="229" height="41"/>
<path d="M22 34H12.6V8.95H0.75V0.499999H33.8V8.95H22V34ZM45.4703 34H36.0703V0.499999H45.4703V34ZM66.4727 34.5C54.8227 34.5 47.9727 27.7 47.9727 17.25C47.9727 6.8 54.8227 -3.57628e-07 66.4727 -3.57628e-07C77.7227 -3.57628e-07 84.4727 5.35 84.4727 14.3V15.15H73.9727V14.3C73.9727 10.5 72.1727 9 66.6227 9C59.8227 9 57.9727 10.6 57.9727 17.25C57.9727 23.9 59.8227 25.5 66.6227 25.5C72.1727 25.5 73.9727 24 73.9727 20.2V19.35H84.4727V20.2C84.4727 29.15 77.7227 34.5 66.4727 34.5ZM96.3492 34H86.9492V0.499999H96.3492V12.95H103.099L111.249 0.499999H122.499L110.899 16.95L122.249 34H110.999L103.199 22.1H96.3492V34ZM153.271 34H123.521V0.499999H153.271V8.95H132.921V12.95H152.521V21.35H132.921V25.55H153.271V34ZM176.443 34H167.043V8.95H155.193V0.499999H188.243V8.95H176.443V34ZM206.764 34.5C196.514 34.5 190.264 30.85 190.264 22.35V22.05H199.664V23.1C199.664 25.35 200.464 25.95 206.764 25.95C212.464 25.95 213.064 25.5 213.064 24C213.064 22.8 212.414 22.3 209.664 21.95L199.164 20.55C192.914 19.7 189.764 16.35 189.764 10.95C189.764 5.6 193.914 -3.57628e-07 206.014 -3.57628e-07C216.664 -3.57628e-07 221.764 4.65 221.764 12.15V12.45H212.364V11.7C212.364 9.3 211.314 8.5 205.014 8.5C200.214 8.5 199.164 9.15 199.164 10.6C199.164 11.65 199.764 12.15 201.564 12.4L212.064 13.95C220.264 15.15 222.464 19.35 222.464 23.65C222.464 29.4 218.064 34.5 206.764 34.5Z"/>
</mask>
<path d="M22 34V37H25V34H22ZM12.6 34H9.6V37H12.6V34ZM12.6 8.95H15.6V5.95H12.6V8.95ZM0.75 8.95H-2.25V11.95H0.75V8.95ZM0.75 0.499999V-2.5H-2.25V0.499999H0.75ZM33.8 0.499999H36.8V-2.5H33.8V0.499999ZM33.8 8.95V11.95H36.8V8.95H33.8ZM22 8.95V5.95H19V8.95H22ZM22 31H12.6V37H22V31ZM15.6 34V8.95H9.6V34H15.6ZM12.6 5.95H0.75V11.95H12.6V5.95ZM3.75 8.95V0.499999H-2.25V8.95H3.75ZM0.75 3.5H33.8V-2.5H0.75V3.5ZM30.8 0.499999V8.95H36.8V0.499999H30.8ZM33.8 5.95H22V11.95H33.8V5.95ZM19 8.95V34H25V8.95H19ZM45.4703 34V37H48.4703V34H45.4703ZM36.0703 34H33.0703V37H36.0703V34ZM36.0703 0.499999V-2.5H33.0703V0.499999H36.0703ZM45.4703 0.499999H48.4703V-2.5H45.4703V0.499999ZM45.4703 31H36.0703V37H45.4703V31ZM39.0703 34V0.499999H33.0703V34H39.0703ZM36.0703 3.5H45.4703V-2.5H36.0703V3.5ZM42.4703 0.499999V34H48.4703V0.499999H42.4703ZM84.4727 15.15V18.15H87.4727V15.15H84.4727ZM73.9727 15.15H70.9727V18.15H73.9727V15.15ZM73.9727 19.35V16.35H70.9727V19.35H73.9727ZM84.4727 19.35H87.4727V16.35H84.4727V19.35ZM66.4727 31.5C61.2264 31.5 57.4062 29.9773 54.9187 27.6174C52.4472 25.2726 50.9727 21.801 50.9727 17.25H44.9727C44.9727 23.149 46.9231 28.3024 50.7891 31.9701C54.6391 35.6227 60.0689 37.5 66.4727 37.5V31.5ZM50.9727 17.25C50.9727 12.699 52.4472 9.22742 54.9187 6.88264C57.4062 4.5227 61.2264 3 66.4727 3V-3C60.0689 -3 54.6391 -1.1227 50.7891 2.52986C46.9231 6.19758 44.9727 11.351 44.9727 17.25H50.9727ZM66.4727 3C71.6648 3 75.427 4.23859 77.826 6.14329C80.1373 7.97834 81.4727 10.6531 81.4727 14.3H87.4727C87.4727 8.99694 85.433 4.52166 81.5568 1.44421C77.7683 -1.56359 72.5305 -3 66.4727 -3V3ZM81.4727 14.3V15.15H87.4727V14.3H81.4727ZM84.4727 12.15H73.9727V18.15H84.4727V12.15ZM76.9727 15.15V14.3H70.9727V15.15H76.9727ZM76.9727 14.3C76.9727 11.9641 76.4082 9.48173 74.1684 7.81713C72.1935 6.3495 69.4922 6 66.6227 6V12C69.3031 12 70.2768 12.4005 70.5895 12.6329C70.6371 12.6683 70.9727 12.8359 70.9727 14.3H76.9727ZM66.6227 6C63.2584 6 59.9542 6.32404 57.6951 8.44329C55.3725 10.6221 54.9727 13.898 54.9727 17.25H60.9727C60.9727 13.952 61.4978 13.1029 61.8002 12.8192C62.1661 12.476 63.1869 12 66.6227 12V6ZM54.9727 17.25C54.9727 20.602 55.3725 23.8779 57.6951 26.0567C59.9542 28.176 63.2584 28.5 66.6227 28.5V22.5C63.1869 22.5 62.1661 22.024 61.8002 21.6808C61.4978 21.3971 60.9727 20.548 60.9727 17.25H54.9727ZM66.6227 28.5C69.4922 28.5 72.1935 28.1505 74.1684 26.6829C76.4082 25.0183 76.9727 22.5359 76.9727 20.2H70.9727C70.9727 21.6641 70.6371 21.8317 70.5895 21.8671C70.2768 22.0995 69.3031 22.5 66.6227 22.5V28.5ZM76.9727 20.2V19.35H70.9727V20.2H76.9727ZM73.9727 22.35H84.4727V16.35H73.9727V22.35ZM81.4727 19.35V20.2H87.4727V19.35H81.4727ZM81.4727 20.2C81.4727 23.8469 80.1373 26.5217 77.826 28.3567C75.427 30.2614 71.6648 31.5 66.4727 31.5V37.5C72.5305 37.5 77.7683 36.0636 81.5568 33.0558C85.433 29.9783 87.4727 25.5031 87.4727 20.2H81.4727ZM96.3492 34V37H99.3492V34H96.3492ZM86.9492 34H83.9492V37H86.9492V34ZM86.9492 0.499999V-2.5H83.9492V0.499999H86.9492ZM96.3492 0.499999H99.3492V-2.5H96.3492V0.499999ZM96.3492 12.95H93.3492V15.95H96.3492V12.95ZM103.099 12.95V15.95H104.721L105.609 14.5931L103.099 12.95ZM111.249 0.499999V-2.5H109.627L108.739 -1.14311L111.249 0.499999ZM122.499 0.499999L124.951 2.22888L128.286 -2.5H122.499V0.499999ZM110.899 16.95L108.447 15.2211L107.263 16.9012L108.402 18.6124L110.899 16.95ZM122.249 34V37H127.85L124.746 32.3376L122.249 34ZM110.999 34L108.49 35.6446L109.379 37H110.999V34ZM103.199 22.1L105.708 20.4554L104.82 19.1H103.199V22.1ZM96.3492 22.1V19.1H93.3492V22.1H96.3492ZM96.3492 31H86.9492V37H96.3492V31ZM89.9492 34V0.499999H83.9492V34H89.9492ZM86.9492 3.5H96.3492V-2.5H86.9492V3.5ZM93.3492 0.499999V12.95H99.3492V0.499999H93.3492ZM96.3492 15.95H103.099V9.95H96.3492V15.95ZM105.609 14.5931L113.759 2.14311L108.739 -1.14311L100.589 11.3069L105.609 14.5931ZM111.249 3.5H122.499V-2.5H111.249V3.5ZM120.047 -1.22888L108.447 15.2211L113.351 18.6789L124.951 2.22888L120.047 -1.22888ZM108.402 18.6124L119.752 35.6624L124.746 32.3376L113.396 15.2876L108.402 18.6124ZM122.249 31H110.999V37H122.249V31ZM113.508 32.3554L105.708 20.4554L100.69 23.7446L108.49 35.6446L113.508 32.3554ZM103.199 19.1H96.3492V25.1H103.199V19.1ZM93.3492 22.1V34H99.3492V22.1H93.3492ZM153.271 34V37H156.271V34H153.271ZM123.521 34H120.521V37H123.521V34ZM123.521 0.499999V-2.5H120.521V0.499999H123.521ZM153.271 0.499999H156.271V-2.5H153.271V0.499999ZM153.271 8.95V11.95H156.271V8.95H153.271ZM132.921 8.95V5.95H129.921V8.95H132.921ZM132.921 12.95H129.921V15.95H132.921V12.95ZM152.521 12.95H155.521V9.95H152.521V12.95ZM152.521 21.35V24.35H155.521V21.35H152.521ZM132.921 21.35V18.35H129.921V21.35H132.921ZM132.921 25.55H129.921V28.55H132.921V25.55ZM153.271 25.55H156.271V22.55H153.271V25.55ZM153.271 31H123.521V37H153.271V31ZM126.521 34V0.499999H120.521V34H126.521ZM123.521 3.5H153.271V-2.5H123.521V3.5ZM150.271 0.499999V8.95H156.271V0.499999H150.271ZM153.271 5.95H132.921V11.95H153.271V5.95ZM129.921 8.95V12.95H135.921V8.95H129.921ZM132.921 15.95H152.521V9.95H132.921V15.95ZM149.521 12.95V21.35H155.521V12.95H149.521ZM152.521 18.35H132.921V24.35H152.521V18.35ZM129.921 21.35V25.55H135.921V21.35H129.921ZM132.921 28.55H153.271V22.55H132.921V28.55ZM150.271 25.55V34H156.271V25.55H150.271ZM176.443 34V37H179.443V34H176.443ZM167.043 34H164.043V37H167.043V34ZM167.043 8.95H170.043V5.95H167.043V8.95ZM155.193 8.95H152.193V11.95H155.193V8.95ZM155.193 0.499999V-2.5H152.193V0.499999H155.193ZM188.243 0.499999H191.243V-2.5H188.243V0.499999ZM188.243 8.95V11.95H191.243V8.95H188.243ZM176.443 8.95V5.95H173.443V8.95H176.443ZM176.443 31H167.043V37H176.443V31ZM170.043 34V8.95H164.043V34H170.043ZM167.043 5.95H155.193V11.95H167.043V5.95ZM158.193 8.95V0.499999H152.193V8.95H158.193ZM155.193 3.5H188.243V-2.5H155.193V3.5ZM185.243 0.499999V8.95H191.243V0.499999H185.243ZM188.243 5.95H176.443V11.95H188.243V5.95ZM173.443 8.95V34H179.443V8.95H173.443ZM190.264 22.05V19.05H187.264V22.05H190.264ZM199.664 22.05H202.664V19.05H199.664V22.05ZM209.664 21.95L209.267 24.9237L209.276 24.9249L209.285 24.926L209.664 21.95ZM199.164 20.55L198.759 23.5226L198.767 23.5237L199.164 20.55ZM221.764 12.45V15.45H224.764V12.45H221.764ZM212.364 12.45H209.364V15.45H212.364V12.45ZM201.564 12.4L202.002 9.43216L201.989 9.43029L201.976 9.42852L201.564 12.4ZM212.064 13.95L211.626 16.9178L211.629 16.9184L212.064 13.95ZM206.764 31.5C201.907 31.5 198.5 30.6198 196.381 29.1485C194.453 27.8094 193.264 25.7569 193.264 22.35H187.264C187.264 27.4431 189.199 31.4656 192.959 34.0765C196.528 36.5552 201.37 37.5 206.764 37.5V31.5ZM193.264 22.35V22.05H187.264V22.35H193.264ZM190.264 25.05H199.664V19.05H190.264V25.05ZM196.664 22.05V23.1H202.664V22.05H196.664ZM196.664 23.1C196.664 23.7606 196.706 24.7691 197.167 25.7604C197.701 26.9067 198.607 27.6624 199.651 28.118C200.58 28.5241 201.645 28.7061 202.712 28.8076C203.816 28.9126 205.159 28.95 206.764 28.95V22.95C205.218 22.95 204.099 22.9124 203.281 22.8346C202.426 22.7533 202.109 22.6447 202.052 22.6195C202.048 22.618 202.148 22.6611 202.28 22.7828C202.422 22.9132 202.534 23.072 202.607 23.2287C202.721 23.4746 202.664 23.5644 202.664 23.1H196.664ZM206.764 28.95C208.214 28.95 209.41 28.9218 210.382 28.8475C211.318 28.7759 212.235 28.6498 213.037 28.371C213.9 28.0708 214.864 27.5082 215.483 26.4311C216.037 25.4656 216.064 24.4879 216.064 24H210.064C210.064 24.2621 210.015 23.9031 210.279 23.4439C210.425 23.1898 210.613 22.9938 210.795 22.86C210.96 22.7384 211.076 22.7004 211.066 22.704C211.005 22.7252 210.703 22.8054 209.924 22.865C209.18 22.9219 208.163 22.95 206.764 22.95V28.95ZM216.064 24C216.064 23.4492 215.993 22.7093 215.634 21.9467C215.254 21.1369 214.662 20.5386 213.993 20.1176C212.863 19.4057 211.393 19.146 210.042 18.974L209.285 24.926C209.913 25.0059 210.332 25.0839 210.61 25.1551C210.9 25.2297 210.909 25.2658 210.796 25.1949C210.729 25.1524 210.621 25.0733 210.504 24.9463C210.384 24.8158 210.281 24.6632 210.204 24.4987C210.053 24.1782 210.064 23.9508 210.064 24H216.064ZM210.06 18.9763L199.56 17.5763L198.767 23.5237L209.267 24.9237L210.06 18.9763ZM199.568 17.5774C196.871 17.2106 195.232 16.3567 194.274 15.3685C193.356 14.4212 192.764 13.0417 192.764 10.95H186.764C186.764 14.2583 187.746 17.2538 189.966 19.544C192.145 21.7933 195.206 23.0394 198.759 23.5226L199.568 17.5774ZM192.764 10.95C192.764 9.09056 193.459 7.24403 195.241 5.79849C197.083 4.30458 200.388 3 206.014 3V-3C199.539 -3 194.72 -1.50458 191.461 1.13901C188.143 3.83097 186.764 7.45944 186.764 10.95H192.764ZM206.014 3C210.961 3 214.125 4.08763 216 5.59853C217.773 7.02712 218.764 9.13173 218.764 12.15H224.764C224.764 7.66827 223.204 3.69788 219.765 0.926466C216.427 -1.76263 211.717 -3 206.014 -3V3ZM218.764 12.15V12.45H224.764V12.15H218.764ZM221.764 9.45H212.364V15.45H221.764V9.45ZM215.364 12.45V11.7H209.364V12.45H215.364ZM215.364 11.7C215.364 10.9367 215.291 9.90667 214.809 8.89531C214.273 7.77355 213.392 6.99194 212.341 6.49142C211.381 6.03449 210.282 5.81005 209.161 5.6819C208.012 5.55059 206.635 5.5 205.014 5.5V11.5C206.542 11.5 207.659 11.5494 208.479 11.6431C209.327 11.7399 209.671 11.8655 209.761 11.9086C209.786 11.9204 209.724 11.8944 209.63 11.8052C209.53 11.7101 209.448 11.5938 209.394 11.4797C209.305 11.2933 209.364 11.2633 209.364 11.7H215.364ZM205.014 5.5C202.638 5.5 200.637 5.63776 199.178 6.21943C198.357 6.54652 197.498 7.09239 196.893 8.01661C196.293 8.9334 196.164 9.88576 196.164 10.6H202.164C202.164 10.5892 202.166 10.9166 201.912 11.3037C201.654 11.6982 201.358 11.8097 201.399 11.7931C201.472 11.7639 201.751 11.6766 202.397 11.6068C203.022 11.5393 203.87 11.5 205.014 11.5V5.5ZM196.164 10.6C196.164 11.7927 196.56 13.1815 197.863 14.1808C198.891 14.9684 200.157 15.2334 201.151 15.3715L201.976 9.42852C201.626 9.37983 201.431 9.33146 201.339 9.30216C201.245 9.2722 201.344 9.28901 201.514 9.41918C201.714 9.57273 201.917 9.81143 202.046 10.1152C202.163 10.3891 202.164 10.5858 202.164 10.6H196.164ZM201.126 15.3678L211.626 16.9178L212.502 10.9822L202.002 9.43216L201.126 15.3678ZM211.629 16.9184C215.295 17.4548 217.156 18.5932 218.116 19.6523C219.055 20.6879 219.464 22.0138 219.464 23.65H225.464C225.464 20.9862 224.773 18.0621 222.561 15.6227C220.371 13.2068 217.033 11.6452 212.498 10.9816L211.629 16.9184ZM219.464 23.65C219.464 25.7033 218.711 27.5125 216.986 28.8812C215.183 30.3122 212.007 31.5 206.764 31.5V37.5C212.82 37.5 217.494 36.1378 220.716 33.5813C224.016 30.9625 225.464 27.3467 225.464 23.65H219.464Z" fill="#FFE37E" mask="url(#path-1-outside-1_1_75)"/>
</svg>
