<svg width="48" height="54" viewBox="0 0 48 54" fill="none" xmlns="http://www.w3.org/2000/svg">
<g filter="url(#filter0_d_1_333)">
<rect x="5" y="1" width="38" height="44" rx="7" stroke="url(#paint0_linear_1_333)" stroke-width="2" shape-rendering="crispEdges"/>
<path d="M25.5222 21.748L31.4785 14.8242H30.0671L24.8952 20.836L20.7644 14.8242H16L22.2466 23.9152L16 31.1758H17.4115L22.8732 24.8271L27.2356 31.1758H32L25.5218 21.748H25.5222ZM23.5889 23.9953L17.9201 15.8868H20.0882L30.0677 30.1616H27.8997L23.5889 23.9956V23.9953Z" fill="url(#paint1_linear_1_333)"/>
<path d="M25.5222 21.748L31.4785 14.8242H30.0671L24.8952 20.836L20.7644 14.8242H16L22.2466 23.9152L16 31.1758H17.4115L22.8732 24.8271L27.2356 31.1758H32L25.5218 21.748H25.5222ZM23.5889 23.9953L17.9201 15.8868H20.0882L30.0677 30.1616H27.8997L23.5889 23.9956V23.9953Z" fill="url(#paint2_linear_1_333)"/>
</g>
<defs>
<filter id="filter0_d_1_333" x="0" y="0" width="48" height="54" filterUnits="userSpaceOnUse" color-interpolation-filters="sRGB">
<feFlood flood-opacity="0" result="BackgroundImageFix"/>
<feColorMatrix in="SourceAlpha" type="matrix" values="0 0 0 0 0 0 0 0 0 0 0 0 0 0 0 0 0 0 127 0" result="hardAlpha"/>
<feOffset dy="4"/>
<feGaussianBlur stdDeviation="2"/>
<feComposite in2="hardAlpha" operator="out"/>
<feColorMatrix type="matrix" values="0 0 0 0 0 0 0 0 0 0 0 0 0 0 0 0 0 0 0.7 0"/>
<feBlend mode="normal" in2="BackgroundImageFix" result="effect1_dropShadow_1_333"/>
<feBlend mode="normal" in="SourceGraphic" in2="effect1_dropShadow_1_333" result="shape"/>
</filter>
<linearGradient id="paint0_linear_1_333" x1="12.3534" y1="-8.25641" x2="52.8005" y2="15.6284" gradientUnits="userSpaceOnUse">
<stop stop-color="#B69853"/>
<stop offset="0.505208" stop-color="#BE9F57"/>
<stop offset="1" stop-color="#C1A258"/>
</linearGradient>
<linearGradient id="paint1_linear_1_333" x1="24" y1="14.8242" x2="24" y2="31.1758" gradientUnits="userSpaceOnUse">
<stop stop-color="#C4A459"/>
<stop offset="1" stop-color="#B59753"/>
</linearGradient>
<linearGradient id="paint2_linear_1_333" x1="16.5915" y1="18.2989" x2="30.7757" y2="15.5971" gradientUnits="userSpaceOnUse">
<stop stop-color="#F4CE6F"/>
<stop offset="0.463542" stop-color="#B29551"/>
<stop offset="1" stop-color="#F6CF6F"/>
</linearGradient>
</defs>
</svg>
