<svg width="21" height="24" viewBox="0 0 21 24" fill="none" xmlns="http://www.w3.org/2000/svg">
<path fill-rule="evenodd" clip-rule="evenodd" d="M20.5 18.9235H15.6282C14.8802 18.9235 14.1628 18.6263 13.6338 18.0974C13.1049 17.5685 12.8077 16.851 12.8077 16.103V14.0517C12.8077 13.3037 13.1049 12.5863 13.6338 12.0573C14.1628 11.5284 14.8802 11.2312 15.6282 11.2312H20.5V9.94915C20.5 9.20146 20.2026 8.48351 19.6744 7.95428C19.1449 7.42586 18.4275 7.12895 17.6795 7.12864H3.32051C2.57282 7.12864 1.85487 7.42607 1.32564 7.95428C0.797226 8.48374 0.500314 9.20112 0.5 9.94915V20.2056C0.5 20.9533 0.797436 21.6712 1.32564 22.2004C1.8551 22.7288 2.57248 23.0258 3.32051 23.0261H17.6795C18.4272 23.0261 19.1451 22.7286 19.6744 22.2004C20.2028 21.671 20.4997 20.9536 20.5 20.2056V18.9235ZM20.5 12.7697V17.385H15.6282C14.9205 17.385 14.3462 16.8107 14.3462 16.103V14.0517C14.3462 13.344 14.9205 12.7697 15.6282 12.7697H20.5ZM16.4067 14.2989C16.5113 14.295 16.6157 14.3123 16.7136 14.3497C16.8114 14.387 16.9007 14.4437 16.9762 14.5164C17.0516 14.5891 17.1116 14.6762 17.1527 14.7726C17.1937 14.8689 17.2149 14.9726 17.2149 15.0773C17.215 15.1821 17.194 15.2858 17.1531 15.3822C17.1122 15.4786 17.0523 15.5658 16.9769 15.6386C16.9016 15.7113 16.8123 15.7682 16.7145 15.8057C16.6167 15.8432 16.5124 15.8606 16.4077 15.8568C16.206 15.8497 16.0149 15.7645 15.8747 15.6193C15.7345 15.4741 15.6561 15.2802 15.656 15.0784C15.6558 14.8765 15.734 14.6825 15.874 14.5371C16.014 14.3917 16.205 14.3063 16.4067 14.2989ZM2.83744 6.13376C2.99764 6.11324 3.159 6.10296 3.32051 6.10299H13.2477L13.2467 6.10094L11.7913 2.26505C11.6984 2.01926 11.5579 1.79423 11.3779 1.60283C11.1979 1.41143 10.9819 1.25744 10.7423 1.14968C10.5027 1.04192 10.2441 0.982507 9.98149 0.974848C9.71886 0.967188 9.4573 1.01143 9.2118 1.10505L3.84154 3.14197C3.59576 3.23484 3.37072 3.37531 3.17932 3.55532C2.98793 3.73532 2.83394 3.95133 2.72617 4.19096C2.61841 4.43059 2.559 4.68913 2.55134 4.95176C2.54368 5.21439 2.58793 5.47595 2.68154 5.72146L2.83744 6.13376ZM14.3185 6.10299H17.6795C17.9021 6.10299 18.1236 6.12248 18.34 6.16043L18.3185 6.10094L16.8641 2.26505C16.6754 1.76952 16.2978 1.36909 15.8142 1.15162C15.3307 0.934149 14.7805 0.917399 14.2846 1.10505L12.6723 1.71633C12.701 1.77684 12.7267 1.83838 12.7503 1.90197L14.2056 5.73787C14.2508 5.85787 14.2887 5.97992 14.3185 6.10299Z" fill="white" fill-opacity="0.6"/>
</svg>
