<svg width="17" height="16" viewBox="0 0 17 16" fill="none" xmlns="http://www.w3.org/2000/svg">
<path d="M2.87091 0.487273L6.02 3.63636H0.565454C0.67676 2.96776 0.943313 2.33457 1.34371 1.78766C1.7441 1.24076 2.26717 0.795368 2.87091 0.487273ZM7.10364 3.43532e-07H4.86364C4.72545 3.43532e-07 4.58727 0.00727306 4.44909 0.0145458L8.07091 3.63636H10.74L7.10364 3.43532e-07ZM12.1364 3.43532e-07H9.16909L12.8055 3.63636H16.4345C16.2642 2.61969 15.7388 1.69637 14.9518 1.03056C14.1648 0.364751 13.1672 -0.000408852 12.1364 3.43532e-07ZM7.396 12.0916L11.0324 10.0916C11.1464 10.0289 11.2415 9.93662 11.3077 9.82456C11.3739 9.7125 11.4089 9.58471 11.4089 9.45455C11.4089 9.32438 11.3739 9.1966 11.3077 9.08453C11.2415 8.97247 11.1464 8.88024 11.0324 8.81745L7.396 6.81745C7.28527 6.75654 7.16058 6.72553 7.03422 6.72748C6.90785 6.72944 6.78418 6.76428 6.67538 6.82859C6.56659 6.8929 6.47643 6.98445 6.41379 7.09421C6.35116 7.20397 6.3182 7.32817 6.31818 7.45455V11.4545C6.3182 11.5809 6.35116 11.7051 6.41379 11.8149C6.47643 11.9246 6.56659 12.0162 6.67538 12.0805C6.78418 12.1448 6.90785 12.1797 7.03422 12.1816C7.16058 12.1836 7.28527 12.1526 7.396 12.0916ZM16.5 5.09091V11.6364C16.499 12.7934 16.039 13.9027 15.2209 14.7209C14.4027 15.539 13.2934 15.999 12.1364 16H4.86364C3.70662 15.999 2.59727 15.539 1.77914 14.7209C0.961011 13.9027 0.500963 12.7934 0.5 11.6364V5.09091H16.5Z" fill="#FBCB68"/>
</svg>
